<svg xmlns="http://www.w3.org/2000/svg" xmlns:xlink="http://www.w3.org/1999/xlink" width="420" height="207" viewBox="0 0 420 207">
    <defs>
        <linearGradient id="vxpg6hwqda" x1="28.453%" x2="108.4%" y1="13.524%" y2="148.876%">
            <stop offset="0%" stop-color="#ABC1DA" stop-opacity="0"/>
            <stop offset="100%" stop-color="#ABC1DA"/>
        </linearGradient>
        <linearGradient id="rx6pw11mlb" x1="17.626%" x2="124.623%" y1="-2638.26%" y2="-2957.682%">
            <stop offset="0%" stop-color="#ABC1DA" stop-opacity="0"/>
            <stop offset="100%" stop-color="#ABC1DA"/>
        </linearGradient>
        <linearGradient id="orpb57fp4c" x1="22.735%" x2="116.513%" y1="-1245.205%" y2="-1426.274%">
            <stop offset="0%" stop-color="#ABC1DA" stop-opacity="0"/>
            <stop offset="100%" stop-color="#ABC1DA"/>
        </linearGradient>
        <filter id="bpkcn63ujd" width="175.6%" height="202%" x="-37.8%" y="-40.8%" filterUnits="objectBoundingBox">
            <feOffset dy="2" in="SourceAlpha" result="shadowOffsetOuter1"/>
            <feGaussianBlur in="shadowOffsetOuter1" result="shadowBlurOuter1" stdDeviation="3"/>
            <feColorMatrix in="shadowBlurOuter1" values="0 0 0 0 0 0 0 0 0 0 0 0 0 0 0 0 0 0 0.3 0"/>
        </filter>
        <path id="bn0zfy2cje" d="M270 161.33L251.31 175c-.065.036-.145.036-.21 0l-6.84-2.75c-.095-.041-.206-.01-.266.074-.06.084-.054.2.016.276l7.05 8.22c.08.1.32 0 .32 0l18.95-19.16c.091-.091.091-.239 0-.33-.091-.091-.239-.091-.33 0z"/>
    </defs>
    <g fill="none" fill-rule="evenodd">
        <g>
            <g transform="translate(-926 -633) translate(926 633)">
                <path d="M0 0H420V206H0z"/>
                <path fill="#FFF" fill-rule="nonzero" d="M409 113.21H248.78c-1.224.003-2.4-.482-3.266-1.347-.867-.865-1.354-2.039-1.354-3.263V7.66c.006-2.548 2.072-4.61 4.62-4.61H409c2.546 0 4.61 2.064 4.61 4.61V108.6c.005 1.224-.479 2.4-1.344 3.266-.866.865-2.042 1.35-3.266 1.344z"/>
                <g fill="url(#vxpg6hwqda)" fill-rule="nonzero" opacity=".5" transform="translate(242 2)">
                    <path d="M164.91 110.24H4.73c-1.223.003-2.398-.482-3.263-1.347-.865-.865-1.35-2.04-1.347-3.263L164.91.08c1.223 0 2.395.486 3.26 1.35.864.865 1.35 2.037 1.35 3.26v100.94c.003 1.223-.482 2.398-1.347 3.263-.865.865-2.04 1.35-3.263 1.347z"/>
                </g>
                <path fill="#1D7CBF" fill-rule="nonzero" d="M244.16 16.46V7.81c.006-2.548 2.072-4.61 4.62-4.61H409c2.546 0 4.61 2.064 4.61 4.61v8.65H244.16z"/>
                <circle cx="249.76" cy="8.21" r="2.39" fill="#FFA88A" fill-rule="nonzero"/>
                <circle cx="257.02" cy="8.21" r="2.39" fill="#FFE197" fill-rule="nonzero"/>
                <circle cx="264.04" cy="8.21" r="2.39" fill="#BDD184" fill-rule="nonzero"/>
                <path fill="#3C424E" fill-rule="nonzero" d="M264 10c-.678.047-1.346-.184-1.85-.64-.508-.484-.806-1.148-.83-1.85-.005-.716.274-1.405.777-1.915.502-.51 1.187-.8 1.903-.805.72.012 1.406.306 1.91.82.495.51.762 1.2.74 1.91-.02.68-.312 1.325-.81 1.79-.497.466-1.16.714-1.84.69zm0-.22c1.206-.054 2.148-1.063 2.12-2.27-.069-1.121-.996-1.997-2.12-2-.545 0-1.068.211-1.46.59-.388.386-.616.903-.64 1.45-.003 1.188.915 2.176 2.1 2.26v-.03zM256.7 10c-.675.044-1.338-.187-1.84-.64-.516-.477-.825-1.138-.86-1.84-.023-1.098.63-2.098 1.644-2.52 1.014-.422 2.183-.18 2.946.61.495.51.762 1.2.74 1.91-.044 1.41-1.22 2.52-2.63 2.48zm0-.22c1.211-.043 2.16-1.059 2.12-2.27-.076-1.106-.996-1.965-2.105-1.965s-2.029.859-2.105 1.965c-.024 1.198.895 2.205 2.09 2.29v-.02zM249.67 10c-.675.044-1.338-.187-1.84-.64-.795-.748-1.05-1.906-.643-2.918.407-1.012 1.392-1.672 2.483-1.662.723.011 1.412.306 1.92.82.49.505.757 1.185.74 1.889-.017.703-.316 1.37-.83 1.851-.496.46-1.154.705-1.83.68V10zm0-.22c.592-.024 1.15-.283 1.55-.72.384-.423.588-.979.57-1.55-.064-1.124-.994-2.002-2.12-2-.542.001-1.061.213-1.45.59-.392.383-.621.902-.64 1.45-.02 1.196.897 2.2 2.09 2.29v-.06z"/>
                <path fill="#3C424E" fill-rule="nonzero" d="M406.91 111.44l-68.9.24-68.9.09h-21.54c-.77.045-1.541-.026-2.29-.21-.776-.226-1.488-.63-2.08-1.18-.592-.555-1.047-1.24-1.33-2-.138-.381-.232-.777-.28-1.18V67.35l-.05-34.45V7.06c-.026-.758 0-1.516.08-2.27.45-2.538 2.652-4.391 5.23-4.4l137.8.17h21.53c.763-.046 1.528.025 2.27.21.73.255 1.39.676 1.93 1.23.588.552 1.034 1.238 1.3 2 .15.346.258.708.32 1.08V10.52L411.91 45l-.08 34.45v25.84c.031.73.008 1.463-.07 2.19-.123.752-.429 1.463-.89 2.07-.91 1.246-2.357 1.987-3.9 2l-.06-.11zm0-.44c1.383-.003 2.683-.664 3.5-1.78.414-.541.685-1.177.79-1.85.066-.701.086-1.406.06-2.11V79.42L411.12 45 411 10.52v-4.3c.02-.333.02-.667 0-1-.033-.321-.107-.637-.22-.94-.221-.604-.585-1.146-1.06-1.58-.463-.464-1.033-.808-1.66-1-.655-.153-1.33-.207-2-.16h-21.53l-137.8.17c-1.241.016-2.405.607-3.15 1.6-.376.494-.62 1.076-.71 1.69-.066.664-.086 1.333-.06 2v25.84l-.05 34.45V107.05c.033.312.107.618.22.91.197.596.541 1.132 1 1.56.456.437 1.012.757 1.62.93.654.159 1.329.216 2 .17h21.54l68.9.09 68.9.24-.03.05z"/>
                <path fill="#E3EFF9" fill-rule="nonzero" d="M257.07 76.51h18.46V95h-18.46V76.51zm24.29 0h18.46V95h-18.46V76.51zm23.67 0h18.46V95H305l.03-18.49z"/>
                <path fill="#3C424E" fill-rule="nonzero" d="M256.2 75.66l9.22-.14 9.32-.09h.3v.31l.05 18.46v.36h-.36l-18.46-.09H256v-.27c0-6.2.15-12.42.2-18.54zm.17.15c.06 6.18.17 12.29.18 18.37l-.26-.27 18.46-.08-.36.35.05-18.46.31.31-9.14-.1-9.24-.12zM280.49 75.66l9.22-.14 9.32-.09h.3v.31l.06 18.46v.36H299l-18.46-.09h-.27v-.27c.05-6.2.17-12.42.22-18.54zm.18.15c.05 6.18.16 12.29.18 18.37l-.27-.27 18.42-.07-.36.35.06-18.46.3.31-9.14-.1-9.19-.13zM304.16 75.66l9.22-.14 9.32-.09h.3v.31l.05 18.46v.36h-.35l-18.47-.09H304v-.27c0-6.2.1-12.42.16-18.54zm.17.15c.05 6.18.17 12.29.18 18.37l-.27-.27 18.47-.08-.36.35V75.72l.31.31-9.15-.1-9.18-.12zM256.6 22.69c.16 3.65.27 7.29.33 10.94l.07 10.95c0 3.64 0 7.29-.09 10.94-.09 3.65-.16 7.29-.3 10.94h-.4c-.14-3.65-.25-7.29-.3-10.94-.05-3.65-.06-7.3-.09-10.94l.09-10.95c.06-3.65.17-7.29.33-10.94h.36z"/>
                <circle cx="266.57" cy="50.68" r="4.34" fill="#E3EFF9" fill-rule="nonzero"/>
                <circle cx="304.72" cy="45.69" r="4.34" fill="#E3EFF9" fill-rule="nonzero"/>
                <circle cx="285.94" cy="32.26" r="4.34" fill="#44E08D" fill-rule="nonzero"/>
                <path fill="#3C424E" fill-rule="nonzero" d="M327.92 63c-6.393.16-12.79.27-19.19.33l-19.19.09-19.2-.09c-6.387-.053-12.783-.15-19.19-.29v-.41c6.4-.14 12.797-.24 19.19-.3l19.2-.08 19.19.09c6.4.06 12.797.167 19.19.32V63zM270.27 50.35c.08 1.189-.327 2.36-1.13 3.24-.843.897-2.009 1.423-3.24 1.46-1.93.047-3.69-1.095-4.433-2.876-.743-1.78-.317-3.835 1.073-5.174.897-.872 2.11-1.342 3.36-1.3 1.204.026 2.348.534 3.175 1.41.827.875 1.268 2.046 1.225 3.25l-.03-.01zm-.37 0c-.087-2.132-1.867-3.8-4-3.75-1.475.05-2.783.962-3.341 2.328-.56 1.365-.265 2.932.751 4.002.688.693 1.614 1.097 2.59 1.13 2.1.006 3.848-1.615 4-3.71z"/>
                <path fill="#3C424E" fill-rule="nonzero" d="M266.29 54.55c.192 1.365.286 2.742.28 4.12.003 1.374-.084 2.747-.26 4.11H266c-.176-1.363-.263-2.736-.26-4.11-.006-1.378.088-2.755.28-4.12h.27zM289.72 31.3c.077 1.19-.335 2.36-1.14 3.24-.842.9-2.009 1.425-3.24 1.46-1.26.016-2.474-.471-3.373-1.353-.899-.883-1.41-2.087-1.417-3.347.02-1.268.542-2.475 1.45-3.36.899-.87 2.11-1.338 3.36-1.3 1.222.032 2.379.554 3.21 1.45.812.867 1.243 2.023 1.2 3.21h-.05zm-.37 0c-.052-1.04-.507-2.02-1.27-2.73-.75-.675-1.732-1.034-2.74-1-2.06 0-3.73 1.67-3.73 3.73s1.67 3.73 3.73 3.73c2.1.006 3.848-1.615 4-3.71l.01-.02zM285.66 37.26c.107 2.133.18 4.26.22 6.38l.06 6.38c0 4.26-.05 8.51-.26 12.76h-.27c-.21-4.25-.23-8.5-.25-12.76l.06-6.38c.04-2.12.113-4.247.22-6.38h.22zM308.49 45.48c.086 1.19-.323 2.362-1.13 3.24-.843.897-2.009 1.423-3.24 1.46-1.26.016-2.474-.471-3.373-1.353-.899-.883-1.41-2.087-1.417-3.347.018-1.264.531-2.47 1.43-3.36.902-.863 2.112-1.331 3.36-1.3 1.222.032 2.379.554 3.21 1.45.812.867 1.243 2.023 1.2 3.21h-.04zm-.37 0c-.087-2.132-1.867-3.8-4-3.75-2.02.07-3.621 1.729-3.62 3.75-.017.958.342 1.884 1 2.58.681.697 1.606 1.102 2.58 1.13 2.1.006 3.848-1.615 4-3.71h.04zM304.44 51.18c.193 1.927.286 3.863.28 5.8 0 1.94-.05 3.87-.26 5.8h-.27c-.21-1.93-.23-3.86-.25-5.8-.015-1.937.075-3.873.27-5.8h.23z"/>
                <path fill="#3C424E" fill-rule="nonzero" d="M267.42 46.38c2.17-2.41 4.5-4.66 6.82-6.91 2.32-2.25 4.7-4.45 7.19-6.53l.18.19c-2.19 2.39-4.51 4.64-6.83 6.9-2.32 2.26-4.71 4.45-7.21 6.51l-.15-.16zM307.86 43.7c1.82-2.07 3.8-4 5.77-5.91 1.97-1.91 4-3.78 6.14-5.53l.19.19c-1.84 2.06-3.82 4-5.79 5.9-1.97 1.9-4 3.78-6.16 5.51l-.15-.16zM300.46 43.58c-2-1.63-3.94-3.42-5.85-5.21-1.91-1.79-3.74-3.64-5.48-5.6l.19-.2c2 1.66 3.93 3.45 5.84 5.23 1.91 1.78 3.74 3.65 5.46 5.62l-.16.16z"/>
                <path d="M280.85 75.85H298.85V93.85H280.85z"/>
                <path fill="#FF7133" fill-rule="nonzero" d="M288.69 87l-2.14 2.6c-.174.228-.246.518-.2.801.044.284.204.536.44.699.17.11.368.165.57.16h.21c.284-.058.532-.227.69-.47l1.38-2.21M291.18 86.07l.66-1c.274.049.556.049.83 0 .91-.226 1.688-.81 2.16-1.62.48-.628.769-1.382.83-2.17.098-.644-.153-1.291-.66-1.7-.549-.353-1.246-.38-1.82-.07-.723.321-1.34.842-1.78 1.5-.62.787-.914 1.782-.82 2.78 0 .19.22.58.15.76l-.47.57"/>
                <path fill="#FF7133" fill-rule="nonzero" d="M289.13 84.56c-.12-.15-.13-.22 0-.47.234-.51.177-1.105-.15-1.56l-2.29-3.19c-.042-.096-.138-.158-.243-.156-.104.002-.198.066-.237.164-.039.097-.015.209.06.282l2.09 2.92s.2.25-.13.47c-.33.22-.47.1-.53 0l-2.08-3c-.048-.088-.143-.14-.243-.135-.1.005-.188.068-.226.161-.038.093-.019.2.049.274l2 2.92c0 .08.1.25-.16.42-.26.17-.44.09-.5 0l-2.09-2.92c-.089-.087-.227-.099-.33-.028-.102.07-.14.204-.09.318l2.28 3.18c.322.613 1.013.937 1.69.79.19 0 .09 0 .22.11l3.46 5.69c.144.23.381.387.65.43.063.01.127.01.19 0 .552 0 1-.448 1-1-.002-.224-.076-.441-.21-.62l-4.18-5.05z"/>
                <path fill="#000" fill-rule="nonzero" d="M288.71 86.6c-.47.62-.95 1.23-1.44 1.84-.23.3-.51.6-.71.9-.192.306-.192.694 0 1 .202.307.568.465.93.4.176-.026.342-.099.48-.21.134-.13.249-.278.34-.44.42-.66.85-1.31 1.28-2v.05c-.39.67-.79 1.34-1.2 2-.088.184-.21.35-.36.49-.16.135-.353.221-.56.25-.212.035-.429.015-.63-.06-.197-.082-.364-.221-.48-.4-.235-.366-.235-.834 0-1.2.24-.34.5-.62.75-.92.5-.6 1-1.19 1.52-1.77l.08.07zM291.16 85.69l.64-1.07c.65.078 1.307-.09 1.84-.47.552-.397 1.015-.905 1.36-1.49.35-.547.56-1.172.61-1.82.086-.638-.172-1.274-.68-1.67-.565-.319-1.255-.319-1.82 0-.587.286-1.098.708-1.49 1.23-.408.51-.707 1.1-.88 1.73-.081.327-.115.664-.1 1 .01.16.043.32.1.47.066.165.087.344.06.52l-.48.57.47-.58c.05-.29-.19-.61-.19-1-.024-.336.006-.674.09-1 .17-.65.47-1.258.88-1.79.374-.526.863-.96 1.43-1.27.31-.16.651-.256 1-.28.352-.03.703.059 1 .25.304.184.532.472.64.81.102.323.143.662.12 1-.05.677-.278 1.329-.66 1.89-.338.585-.79 1.095-1.33 1.5-.56.395-1.253.556-1.93.45h.05l-.68 1s-.06.03-.05.02z"/>
                <path fill="#000" fill-rule="nonzero" d="M289.23 84.35l-.12-.14c-.054-.06-.092-.132-.11-.21-.015-.073-.015-.147 0-.22.057-.129.1-.263.13-.4.056-.277.035-.564-.06-.83-.117-.259-.269-.501-.45-.72l-.5-.69-1-1.4-.51-.69c-.022-.052-.064-.093-.117-.114-.053-.02-.111-.02-.163.004-.048.023-.085.066-.1.117-.015.052-.008.107.02.153.009.019.009.041 0 .06l2.1 2.92.08.11h-.14l.05-.12c.073.097.096.224.06.34-.045.102-.118.188-.21.25-.088.057-.187.095-.29.11-.118.02-.24-.02-.32-.11l-1.31-1.86-.65-.93c-.047-.075-.1-.145-.16-.21-.059-.034-.131-.034-.19 0-.063.028-.102.091-.1.16-.009.03-.009.06 0 .09l.08.11 1.31 1.87.65.93c.079.09.115.21.1.33-.035.112-.11.208-.21.27-.086.063-.185.108-.29.13-.128.024-.259-.017-.35-.11l-1.28-1.77-.64-.9-.16-.22c-.031-.054-.088-.088-.15-.09-.061.002-.117.036-.145.09-.03.053-.027.118.005.17.008.026.008.054 0 .08l1.67 2.35.42.59c.126.199.277.38.45.54.364.295.844.406 1.3.3h.11c.019-.009.041-.009.06 0l.05.06 1.93 3.19 1 1.6.48.8c.14.263.389.45.68.51.356.05.71-.096.93-.38.22-.29.25-.68.08-1-.07-.163-.154-.32-.25-.47l-.36-.43-.72-.87-2.69-3.35zm-.11-.23l2.88 3.5.72.86.36.43c.127.14.24.29.34.45.188.357.16.789-.07 1.12-.242.327-.65.486-1.05.41-.325-.062-.605-.268-.76-.56l-.48-.8-1-1.59-1.94-3.19v-.05c.07 0 0 0 0 0H288c-.5.118-1.027 0-1.43-.32-.182-.167-.343-.355-.48-.56l-.42-.59-1.67-2.37c-.06-.109-.06-.241 0-.35.06-.11.174-.18.3-.18.123 0 .237.065.3.17l.16.22.64.89 1.27 1.78c.08.1.26 0 .4 0s.19-.21.07-.35l-.65-.94-1.3-1.87-.09-.12c-.016-.059-.016-.121 0-.18.006-.127.083-.24.199-.292.116-.053.251-.037.351.042.07.072.13.152.18.24l.66.94 1.3 1.86c.1.11.29.06.43 0 .068-.045.124-.107.16-.18.028-.064.028-.136 0-.2l-.08-.11h.15l-.06.11-2.09-2.93c-.05-.076-.065-.169-.042-.257.023-.087.082-.161.162-.203.163-.08.36-.012.44.15l.5.7 1 1.4.5.7c.18.225.329.474.44.74.1.279.12.58.06.87-.033.14-.076.277-.13.41-.019.065-.019.135 0 .2-.036-.006-.074-.006-.11 0z"/>
                <path d="M304.03 77.11H321.96V95.03999999999999H304.03z"/>
                <path fill="#F2BB41" fill-rule="nonzero" d="M317.65 83.73l.74 7-.78.78-3.2-5.59-2.18 1.85-.33 2.84-.7.79-1.2-3-3-1.2.79-.7 2.84-.33 1.89-2.17-5.59-3.19.78-.78 7 .73c.44.042.874-.112 1.19-.42 3-2.87 4.06-1.87 4.06-1.87s1 1.05-1.88 4.05c-.315.32-.472.763-.43 1.21z"/>
                <path fill="#000" fill-rule="nonzero" d="M306.49 84.77c.112-.204.235-.4.37-.59.124-.195.261-.382.41-.56.278-.359.586-.693.92-1-.236.398-.5.78-.79 1.14-.14.18-.28.35-.44.52-.16.17-.31.34-.49.5l.02-.01zM308.21 84.69c.061-.143.135-.28.22-.41.081-.13.171-.253.27-.37.187-.247.401-.472.64-.67.02-.015.05-.015.07 0-.134.277-.298.54-.49.78-.1.12-.2.24-.3.34-.11.114-.226.221-.35.32l-.06.01zM314.51 92.8c.15-.18.32-.34.48-.5l.52-.46c.351-.298.722-.572 1.11-.82.022-.013.048-.013.07 0-.303.362-.638.697-1 1-.18.15-.36.3-.55.43-.184.144-.378.274-.58.39h-.05v-.04zM314.64 90.9c.09-.126.19-.243.3-.35.103-.111.213-.215.33-.31.236-.203.494-.377.77-.52h.06c-.19.244-.409.466-.65.66-.114.101-.234.195-.36.28-.128.086-.261.163-.4.23-.014.01-.033.014-.05.01z" opacity=".4"/>
                <path fill="#000" fill-rule="nonzero" d="M308.12 81.31l-.77-.4c-.027-.013-.047-.036-.057-.064-.01-.029-.007-.06.007-.086l.75-.81c.038-.016.082-.016.12 0 1.59.12 3.17.25 4.76.4l1.18.12.6.06H315.28c.33-.007.644-.14.88-.37.3-.27.59-.55.91-.8.635-.545 1.373-.956 2.17-1.21.22-.054.445-.078.67-.07.122.009.243.032.36.07.063.018.124.045.18.08l.1.07c.036.035.066.076.09.12.12.216.172.464.15.71-.009.221-.05.44-.12.65-.136.393-.324.767-.56 1.11-.11.17-.23.34-.35.5l-.39.47c-.26.3-.56.59-.82.86-.244.275-.373.633-.36 1 .006.027 0 .056-.018.077-.018.022-.044.034-.072.033-.05-.004-.091-.04-.1-.09-.058-.431.061-.868.33-1.21.27-.32.53-.59.76-.91.5-.592.89-1.27 1.15-2 .132-.32.132-.68 0-1l-.12-.05h-.22c-.172-.01-.345.01-.51.06-.718.244-1.38.628-1.95 1.13-.31.25-.59.52-.88.78-.337.335-.795.52-1.27.51-.107.006-.213.006-.32 0h-.3l-.59-.07-1.19-.13c-1.58-.18-3.15-.39-4.73-.6h.12l-.8.75v-.18l.74.46c.03.03.03.08 0 .11-.025.013-.054.01-.076-.007-.022-.018-.031-.046-.024-.073z"/>
                <path fill="#000" fill-rule="nonzero" d="M318.21 83.71l.44 3.48c.14 1.16.28 2.33.41 3.49.01.058-.008.118-.05.16l-.77.79c-.084.079-.216.079-.3 0-1.09-1.85-2.16-3.7-3.23-5.56l.4.07-2.22 1.86.09-.17-.33 2.84c-.009.056-.033.108-.07.15l-.7.79c-.109.105-.281.105-.39 0-.027-.03-.05-.064-.07-.1l-1.19-3 .15.15-3-1.21c-.123-.059-.18-.203-.13-.33.011-.038.036-.07.07-.09l.79-.7c.038-.03.083-.05.13-.06l2.84-.3-.08.03 1.88-2.15v.27l-3.78-2.26c-.018-.017-.028-.04-.028-.065s.01-.048.028-.065c.034-.03.086-.03.12 0l3.87 2.12c.084.048.115.154.07.24l-1.83 2.2c-.033.038-.08.063-.13.07l-2.84.36.13-.06-.78.71-.07-.42 3 1.19c.065.027.119.077.15.14l1.21 3-.46-.08.7-.79-.07.15.34-2.84c.002-.067.036-.13.09-.17l2.19-1.84c.104-.098.266-.098.37 0 1.06 1.86 2.12 3.73 3.16 5.61h-.34l.79-.77-.06.16c-.11-1.16-.22-2.33-.32-3.5l-.29-3.5c-.003-.02.003-.04.017-.056.013-.015.033-.024.053-.024.028.016.044.048.04.08z"/>
                <path fill="#E3EFF9" fill-rule="nonzero" d="M377.34 59.77c-7.732 0-14-6.268-14-14s6.268-14 14-14v-5.58c-8.832.007-16.569 5.92-18.894 14.44-2.325 8.52 1.336 17.544 8.94 22.036 7.604 4.492 17.274 3.343 23.614-2.806l-4-4c-2.593 2.504-6.055 3.906-9.66 3.91z"/>
                <path fill="#44E08D" fill-rule="nonzero" d="M396.35 45.2c0-10.82-8.77-19.59-19.59-19.59v5.61c5.702.022 10.82 3.5 12.94 8.794 2.121 5.293.82 11.343-3.29 15.296l4 4c3.818-3.699 5.963-8.794 5.94-14.11z"/>
                <path fill="#3C424E" fill-rule="nonzero" d="M377.74 64.12c-10.985 0-19.89-8.905-19.89-19.89 0-10.985 8.905-19.89 19.89-19.89 10.985 0 19.89 8.905 19.89 19.89-.011 10.98-8.91 19.879-19.89 19.89zm0-39.19c-7.81-.016-14.86 4.676-17.86 11.886-3 7.211-1.358 15.519 4.159 21.047 5.516 5.528 13.82 7.187 21.038 4.202C392.293 59.08 397 52.04 397 44.23c-.011-10.639-8.621-19.267-19.26-19.3z"/>
                <path fill="#3C424E" fill-rule="nonzero" d="M377.74 58.51c-5.778.008-10.99-3.466-13.207-8.801-2.217-5.336-1-11.481 3.082-15.57 4.083-4.088 10.227-5.313 15.565-3.104 5.339 2.21 8.82 7.417 8.82 13.195-.005 7.877-6.383 14.263-14.26 14.28zm0-28c-7.56 0-13.69 6.13-13.69 13.69s6.13 13.69 13.69 13.69 13.69-6.13 13.69-13.69c-.022-7.547-6.143-13.655-13.69-13.66v-.03z"/>
                <path fill="#44E08D" fill-rule="nonzero" d="M362.83 76.32H370.69V84.17999999999999H362.83z"/>
                <path fill="#3C424E" fill-rule="nonzero" d="M369.83 83.42c-2.78.13-5.73.26-8.7.32-.109.003-.214-.038-.293-.113-.079-.075-.124-.178-.127-.287 0-1.44 0-2.87-.05-4.31-.05-1.44 0-2.86 0-4.3 0-.27.22-.49.49-.49 2.87 0 5.73 0 8.6.11.206.005.37.174.37.38-.07 2.94-.21 5.86-.29 8.69zm-.24-.21c-.08-2.9-.22-5.72-.26-8.49l.38.39c-2.87.07-5.73.08-8.6.11l.49-.5v4.3c0 1.43 0 2.87-.05 4.31l-.42-.42c2.74.09 5.52.17 8.46.3z"/>
                <path fill="#E3EFF9" fill-rule="nonzero" d="M362.42 90.71H370.88V99.16999999999999H362.42z"/>
                <path fill="#3C424E" fill-rule="nonzero" d="M369.83 98.21c-2.78.13-5.73.26-8.7.31-.11.005-.216-.034-.296-.11-.08-.075-.124-.18-.124-.29 0-1.43 0-2.86-.05-4.3s0-2.87 0-4.3c0-.27.22-.49.49-.49 2.87 0 5.73 0 8.6.12.206.005.37.174.37.38-.07 2.94-.21 5.85-.29 8.68zm-.24-.2c-.08-2.9-.22-5.71-.26-8.48l.38.38c-2.87.07-5.73.09-8.6.12l.49-.5v4.3c0 1.43 0 2.87-.05 4.3l-.42-.42c2.74.04 5.52.17 8.46.29v.01zM375.35 78.2c1.57-.15 3.15-.21 4.73-.27 1.58-.06 3.15-.08 4.73-.08 1.58 0 3.15 0 4.73.08 1.58.08 3.15.11 4.73.25.044.002.086.023.114.057.029.034.042.079.036.123 0 .085-.066.155-.15.16-1.58.13-3.16.2-4.73.25-1.57.05-3.16 0-4.73.07-1.57.07-3.16 0-4.73-.07-1.57-.07-3.16-.13-4.73-.28-.079-.01-.136-.08-.13-.16.005-.07.06-.125.13-.13zM375.35 81c1.563-.256 3.146-.373 4.73-.35 1.583-.014 3.164.096 4.73.33.045.007.086.033.112.07.027.038.037.085.028.13-.012.072-.068.128-.14.14-1.566.234-3.147.344-4.73.33-1.584.015-3.166-.106-4.73-.36-.04-.005-.075-.026-.098-.058-.023-.033-.03-.073-.022-.112.011-.061.059-.109.12-.12zM375.35 92.92c1.57-.15 3.15-.21 4.73-.27 1.58-.06 3.15-.08 4.73-.08 1.58 0 3.15 0 4.73.08 1.58.08 3.15.11 4.73.25.044.002.086.023.114.057.029.034.042.079.036.123 0 .085-.066.155-.15.16-1.58.13-3.16.2-4.73.25-1.57.05-3.16.05-4.73.07-1.57.02-3.16 0-4.73-.07-1.57-.07-3.16-.13-4.73-.28-.079-.01-.136-.08-.13-.16.005-.07.06-.125.13-.13zM375.35 95.74c1.563-.256 3.146-.373 4.73-.35 1.583-.014 3.164.096 4.73.33.045.007.086.033.112.07.027.038.037.085.028.13-.012.072-.068.128-.14.14-1.566.234-3.147.344-4.73.33-1.584.015-3.166-.106-4.73-.36-.04-.005-.075-.026-.098-.058-.023-.033-.03-.073-.022-.112.011-.061.059-.109.12-.12z"/>
                <g fill="#3C424E" fill-rule="nonzero" opacity=".5">
                    <path d="M1.53.69v2c0 .1-.08.18-.18.18-.096 0-.175-.075-.18-.17v-2c0-.05.027-.096.07-.121.043-.025.097-.025.14 0 .043.025.07.071.07.121l.08-.01zM1.64 6.71l.07 4c0 .178-.142.325-.32.33-.177 0-.32-.143-.32-.32l.07-4c0-.138.112-.25.25-.25.134 0 .245.106.25.24zM1.75 14.74v4c0 .22-.18.4-.4.4-.22 0-.4-.18-.4-.4v-4c0-.199.161-.36.36-.36.199 0 .36.161.36.36h.08zM1.83 22.77v4c0 .249-.201.45-.45.45-.25 0-.455-.2-.46-.45v-4c0-.243.197-.44.44-.44s.44.197.44.44h.03zM1.86 30.8v4c.003.128-.047.252-.138.342-.09.091-.214.14-.342.138-.128.003-.252-.047-.342-.138-.091-.09-.14-.214-.138-.342v-4c0-.124.05-.242.138-.329.089-.086.208-.134.332-.131.126-.005.25.04.342.127.092.086.145.207.148.333zM1.89 38.84v4c0 .276-.224.5-.5.5s-.5-.224-.5-.5v-4c0-.276.224-.5.5-.5s.5.224.5.5zM1.87 46.87v4c0 .26-.21.47-.47.47s-.47-.21-.47-.47v-4c-.003-.128.047-.252.138-.342.09-.091.214-.14.342-.138.265 0 .48.215.48.48h-.02zM1.85 54.9v4c0 .116-.047.227-.13.308-.082.08-.194.125-.31.122-.24 0-.435-.19-.44-.43v-4c0-.254.206-.46.46-.46s.46.206.46.46h-.04zM1.79 62.93v4c0 .204-.166.37-.37.37s-.37-.166-.37-.37v-4c0-.108.043-.211.12-.286.078-.076.182-.117.29-.114.107-.003.21.038.286.114.076.076.117.18.114.286h-.07zM1.72 71l-.07 4c.003.072-.025.141-.076.19-.052.05-.123.076-.194.07-.144 0-.26-.116-.26-.26l-.06-4c0-.182.148-.33.33-.33.182 0 .33.148.33.33zM1.59 79v2c0 .094-.076.17-.17.17-.094 0-.17-.076-.17-.17v-2c-.003-.055.017-.108.055-.148.038-.04.09-.062.145-.062.11 0 .2.09.2.2l-.06.01z" transform="translate(342 22)"/>
                </g>
                <rect width="77.83" height="155.79" x="44.18" y="2.57" fill="#1D7CBF" fill-rule="nonzero" rx="8.87"/>
                <path fill="#3C424E" fill-rule="nonzero" d="M72.05 5.09c-.697-.004-1.327.412-1.596 1.055-.27.642-.125 1.384.366 1.878s1.232.643 1.876.377c.644-.266 1.064-.893 1.064-1.59 0-.946-.764-1.714-1.71-1.72zM78 5.89c-.508 0-.92.412-.92.92s.412.92.92.92.92-.412.92-.92-.412-.92-.92-.92z"/>
                <path fill="#FFF" fill-rule="nonzero" d="M112.29 5.09h-10.67V6.7c0 1.254-.498 2.458-1.385 3.345s-2.09 1.385-3.345 1.385h-28c-2.604-.011-4.71-2.125-4.71-4.73V5.09H53.9c-3.927 0-7.11 3.183-7.11 7.11v136.1c0 3.927 3.183 7.11 7.11 7.11h58.39c3.927 0 7.11-3.183 7.11-7.11V12.2c0-3.927-3.183-7.11-7.11-7.11z"/>
                <g fill="url(#rx6pw11mlb)" fill-rule="nonzero" opacity=".5" transform="translate(44 68)">
                    <path d="M74.4 87.64H2.25C1.11 87.64.18 86 .18 83.98L74.4.16c1.14 0 2.07 1.64 2.07 3.67V84c.01 2-.92 3.64-2.07 3.64z"/>
                </g>
                <path fill="#E3EFF9" fill-rule="nonzero" d="M55.24 21.29H114.11V50.96H55.24zM55.24 89.93H114.11V95.62H55.24z"/>
                <path fill="#3C424E" fill-rule="nonzero" d="M112.81 128.02L112.8 129.6 112.8 129.82 112.53 129.82 110.95 129.84 110.95 129.35 112.53 129.37 112.26 129.6 112.25 128.02zM107.67 129.88L104.4 129.93 104.4 129.27 107.67 129.31zM101.12 129.97L97.84 130.01 97.84 129.19 101.12 129.23zM94.56 130.05L91.29 130.09 91.29 129.1 94.56 129.15zM88.01 130.12L84.73 130.14 84.73 129.05 88.01 129.08zM81.46 130.16L78.18 130.19 78.18 129.01 81.46 129.03zM74.9 130.21L71.63 130.24 71.63 128.96 74.9 128.98zM68.35 130.26L65.07 130.28 65.07 128.91 68.35 128.94zM61.79 130.3L58.52 130.31 58.52 128.89 61.79 128.9zM55.24 130.31L53.66 130.32 52.94 130.32 52.94 129.6 52.94 128.02 54.39 128.02 54.38 129.6 53.66 128.88 55.24 128.88zM52.93 125.08L52.92 122.13 54.4 122.13 54.39 125.08zM52.92 119.18L52.91 116.24 54.42 116.24 54.41 119.18zM52.9 113.29L52.89 110.35 54.43 110.35 54.42 113.29zM52.89 107.4L52.88 104.45 54.45 104.45 54.44 107.4zM52.88 101.51L52.88 99.93 52.89 99.15 53.66 99.16 55.24 99.16 55.24 100.7 53.66 100.71 54.44 99.93 54.45 101.51zM58.52 99.18L61.79 99.19 61.79 100.67 58.52 100.69zM65.07 99.2L68.35 99.22 68.35 100.65 65.07 100.66zM71.63 99.23L74.9 99.25 74.9 100.62 71.63 100.63zM78.18 99.26L81.46 99.28 81.46 100.59 78.18 100.6zM84.73 99.29L88.01 99.3 88.01 100.56 84.73 100.58zM91.29 99.32L94.56 99.33 94.56 100.53 91.29 100.55zM97.84 99.35L101.12 99.36 101.12 100.5 97.84 100.52zM104.4 99.38L107.67 99.39 107.67 100.48 104.4 100.49zM110.95 99.41L112.53 99.42 113.05 99.42 113.04 99.93 113.03 101.51 112.03 101.51 112.02 99.93 112.53 100.45 110.95 100.46zM113 104.45L112.98 107.4 112.08 107.4 112.05 104.45zM112.96 110.35L112.93 113.29 112.13 113.29 112.1 110.35zM112.91 116.24L112.88 119.18 112.17 119.18 112.15 116.24zM112.86 122.13L112.83 125.08 112.22 125.08 112.2 122.13z"/>
                <path fill="#E3EFF9" fill-rule="nonzero" d="M97.49 55.26H114.1V85.62H97.49z"/>
                <path fill="#3C424E" fill-rule="nonzero" d="M112.62 49.45l-58.95.26h-.33V19.32h.39l58.87.17h.22v.22l-.2 29.74zm-.19-.16l-.12-29.57.22.22-58.87.17.39-.39v29.66l-.39-.38 58.77.29zM112.62 94.13l-29.4.19-29.55.11h-.38V88h.38l58.87.23h.16v.15l-.08 5.75zm-.19-.16l-.06-5.6.16.16-58.87.23.39-.39v5.7l-.38-.39 29.33.1 29.43.19zM112.62 83.78c-5.51 0-11.08.19-16.7.19h-.27v-.27L95.53 54v-.39h.39l16.62.07h.32V54l-.24 29.78zm-.19-.16L112.21 54l.32.32-16.62.07.39-.39-.11 29.7-.28-.28c5.46.01 10.96.14 16.52.2z"/>
                <path fill="#3C424E" fill-rule="nonzero" d="M54.62 156.56l56.5-.28h3.53c1.114.004 2.218-.21 3.25-.63 2.076-.86 3.717-2.522 4.55-4.61.412-1.033.62-2.137.61-3.25v-10.6l-.06-28.25-.1-56.5V10.06c.043-2.18-.79-4.287-2.31-5.85-1.518-1.56-3.603-2.44-5.78-2.44l-56.5-.1h-3.62c-1.093-.005-2.176.203-3.19.61-2.046.836-3.668 2.462-4.5 4.51-.405 1.018-.61 2.105-.6 3.2v38.85l-.13 56.5-.1 28.25v14.12c-.051 2.307.82 4.538 2.42 6.2 1.606 1.662 3.819 2.6 6.13 2.6l-.1.05zm0 .49c-2.46.009-4.82-.98-6.54-2.74-1.726-1.76-2.676-4.136-2.64-6.6v-14.12l-.09-28.25-.13-56.5-.05-28.25V10c-.005-1.263.23-2.515.69-3.69C46.791 3.922 48.643 2.008 51 1c1.175-.477 2.432-.722 3.7-.72h3.53l56.5-.09c2.594-.009 5.082 1.032 6.897 2.885 1.816 1.853 2.805 4.361 2.743 6.955v42.38l-.1 56.5v38.84c.005 1.25-.229 2.489-.69 3.65-.949 2.338-2.797 4.197-5.13 5.16-1.16.465-2.4.703-3.65.7h-3.53L54.62 157v.05z"/>
                <path fill="#E3EFF9" fill-rule="nonzero" d="M68.07 67.56h9.08c3.314 0 6 2.686 6 6v19.4c0 3.314-2.686 6-6 6H14.54c-3.314 0-6-2.686-6-6V73.52c0-3.314 2.686-6 6-6l53.53.04z"/>
                <path fill="#FFF" fill-rule="nonzero" d="M66.83 67.05h9.08c3.314 0 6 2.686 6 6v19.4c0 3.314-2.686 6-6 6H13.3c-3.314 0-6-2.686-6-6V73c0-3.314 2.686-6 6-6l53.53.05z"/>
                <path fill="#E3EFF9" fill-rule="nonzero" d="M34.81 74.15H72.76V77.17H34.81zM34.81 79.93H54.730000000000004V82.95H34.81zM16 88.53h10.68c1.027 0 1.86-.833 1.86-1.86V76c0-1.027-.833-1.86-1.86-1.86H16c-1.034-.006-1.879.826-1.89 1.86v10.67c0 .499.2.976.555 1.326.356.35.837.542 1.335.534z"/>
                <path fill="#3C424E" fill-rule="nonzero" d="M15.3 87.77l6.81-.12h3.41c.266.022.534.022.8 0 .24-.051.467-.158.66-.31.413-.318.642-.82.61-1.34V75.78c.017-.263.017-.527 0-.79-.049-.229-.148-.444-.29-.63-.288-.377-.735-.598-1.21-.6H15.87c-.266-.02-.534-.02-.8 0-.24.05-.465.152-.66.3-.395.296-.63.757-.64 1.25l-.06 6.82v3.4c-.026.276-.026.554 0 .83.053.256.158.497.31.71.324.432.83.69 1.37.7h-.09zm0 .21c-.617 0-1.2-.283-1.58-.77-.186-.242-.316-.522-.38-.82-.04-.291-.057-.586-.05-.88v-3.4l-.06-6.82c-.015-.649.269-1.268.77-1.68.252-.205.551-.346.87-.41.303-.028.607-.028.91 0H26c1.044.004 1.94.745 2.14 1.77.024.303.024.607 0 .91V86.1c-.002.663-.317 1.286-.85 1.68-.26.194-.561.327-.88.39-.3.024-.6.024-.9 0H22.1L15.3 88v-.02zM34.28 73.64l.06 2.93-.13-.13 9.49-.09 9.49-.07h19l-.33.33v-3l.32.31-18.89-.09-19-.14-.01-.05zm-.13-.17l19-.14 19.07-.09h.31v3.66H53.2l-9.5-.1-9.49-.1h-.13v-.13l.07-3.08v-.02zM34.29 82.28l10-.17c3.31-.06 6.58-.06 9.87-.08l-.33.32v-3l.33.33-10-.06-10-.11.16-.16-.08 2.94.05-.01zm-.16.14l-.07-3.09v-.15h.16l10-.12 10-.06h.33v3.67h-.32c-3.36 0-6.73 0-10.07-.08l-9.92-.17h-.11z"/>
                <path fill="#3C424E" fill-rule="nonzero" d="M66.23 66.35h9.45c2.202.114 4.167 1.417 5.13 3.4.243.484.418.998.52 1.53.1.527.14 1.064.12 1.6v18.88c.011 3.42-2.74 6.207-6.16 6.24h-3.14l-50.37.07h-9.46c-1.106-.06-2.177-.404-3.11-1-.918-.621-1.656-1.473-2.14-2.47-.247-.507-.422-1.045-.52-1.6-.09-.535-.127-1.078-.11-1.62V72.49c-.01-1.662.642-3.26 1.813-4.438 1.172-1.18 2.765-1.842 4.427-1.842h3.15l50.37.14h.03zm0 .21l-50.37.14h-3.15c-1.525.005-2.985.618-4.057 1.703C7.582 69.488 6.987 70.955 7 72.48v18.89c-.129 2.041.834 3.997 2.53 5.14.83.553 1.794.875 2.79.93h9.43l50.37.08h3.14c1.011.005 2.006-.261 2.88-.77 1.782-1.034 2.876-2.94 2.87-5V72.87c.14-2.089-.833-4.096-2.56-5.28-.85-.584-1.841-.93-2.87-1h-9.43l.08-.03z"/>
                <path d="M12.88 74.32H26.880000000000003V88.32H12.88z"/>
                <path fill="#F2BB41" fill-rule="nonzero" d="M23.52 79.49l.57 5.45-.61.61L21 81.19l-1.7 1.44-.3 2.22-.55.62-.94-2.31-2.31-.94.62-.55 2.21-.26 1.45-1.7-4.37-2.49.61-.61 5.46.57c.342.032.68-.084.93-.32 2.34-2.25 3.17-1.47 3.17-1.47s.78.82-1.47 3.17c-.23.251-.337.592-.29.93z"/>
                <path fill="#000" fill-rule="nonzero" d="M14.8 80.29c.083-.161.18-.315.29-.46.1-.14.2-.29.32-.43.218-.285.46-.553.72-.8h.05c-.185.309-.389.606-.61.89-.11.14-.23.28-.35.41-.12.134-.246.26-.38.38 0 0-.05.03-.04.01zM16.14 80.23c.052-.11.112-.218.18-.32.06-.1.13-.19.2-.29.15-.188.318-.362.5-.52-.105.216-.233.42-.38.61l-.24.27c-.083.088-.173.168-.27.24l.01.01zM21.07 86.57c.113-.14.237-.27.37-.39.126-.128.26-.248.4-.36.275-.233.566-.447.87-.64-.22.287-.457.56-.71.82l-.42.33c-.15.1-.3.21-.45.3 0 0-.07-.05-.06-.06zM21.16 85.08c.072-.097.152-.187.24-.27.08-.088.166-.168.26-.24.18-.16.378-.297.59-.41-.146.19-.314.36-.5.51l-.28.22c-.1.07-.208.13-.32.18 0 0 .01.02.01.01z" opacity=".4"/>
                <path fill="#000" fill-rule="nonzero" d="M16.07 77.59l-.6-.31c-.017-.015-.027-.037-.027-.06s.01-.045.027-.06l.59-.63c.029-.013.061-.013.09 0 1.24.1 2.47.2 3.71.32l.93.09h.91c.257 0 .502-.105.68-.29.24-.21.47-.42.72-.62.49-.445 1.064-.786 1.69-1 .172-.025.348-.025.52 0 .093-.01.187-.01.28 0 .05.017.097.04.14.07.026-.006.054-.006.08 0 .029.025.053.056.07.09.094.171.135.366.12.56-.003.17-.033.34-.09.5-.11.307-.258.6-.44.87-.085.136-.179.266-.28.39-.091.13-.192.254-.3.37-.2.24-.44.46-.64.68-.193.217-.293.5-.28.79 0 .039-.031.07-.07.07 0 0-.07 0-.08-.06-.042-.335.052-.674.26-.94.21-.25.41-.47.6-.72.387-.459.689-.984.89-1.55.097-.24.097-.51 0-.75h-.09c-.056-.01-.114-.01-.17 0-.132-.024-.268-.024-.4 0-.562.185-1.08.484-1.52.88-.24.19-.46.4-.68.61-.269.257-.628.397-1 .39h-.48l-.46-.06-.93-.1c-1.24-.14-2.47-.3-3.7-.46h.1l-.63.59v-.15l.57.37c.02.02.024.05.01.074-.015.023-.044.034-.07.026l-.05.02zM24 79.47l.34 2.72c.12.91.22 1.82.33 2.72.016.042.016.088 0 .13l-.6.62c-.03.034-.074.054-.12.054s-.09-.02-.12-.054c-.847-1.44-1.687-2.887-2.52-4.34h.31l-1.7 1.45.08-.14-.26 2.22c-.004.044-.022.086-.05.12l-.69.63c-.086.074-.214.074-.3 0-.027-.025-.047-.056-.06-.09l-.93-2.31.11.11-2.31-.94c-.098-.045-.142-.16-.1-.26.01-.027.028-.051.05-.07l.62-.54c.032-.011.068-.011.1 0l2.21-.24-.1.06 1.46-1.68v.21l-3-1.76c-.025-.032-.025-.078 0-.11.03-.023.07-.023.1 0l3 1.65c.03.017.054.045.063.08.01.033.005.07-.013.1l-1.34 1.69c-.02.036-.059.059-.1.06l-2.21.28h.1l-.61.55-.07-.39L18 83c.05.024.09.067.11.12l.89 2.26-.35-.07.54-.62-.05.12.26-2.21c.008-.055.037-.105.08-.14L21.22 81c.081-.077.209-.077.29 0 .83 1.46 1.66 2.92 2.47 4.39h-.27l.62-.6-.03.21c-.08-.91-.17-1.82-.25-2.74l-.22-2.73c-.007-.016-.005-.035.005-.05.01-.014.027-.022.045-.02 0 0 .12-.03.12.01z"/>
                <path fill="#E3EFF9" fill-rule="nonzero" d="M68.07 31.89h9.08c3.314 0 6 2.686 6 6v19.35c0 3.314-2.686 6-6 6H14.54c-3.314 0-6-2.686-6-6V37.85c0-3.314 2.686-6 6-6l53.53.04z"/>
                <path fill="#FFF" fill-rule="nonzero" d="M66.87 30.69H76c3.314 0 6 2.686 6 6v19.4c0 3.314-2.686 6-6 6H13.34c-3.314 0-6-2.686-6-6V36.65c0-3.314 2.686-6 6-6l53.53.04z"/>
                <path fill="#E3EFF9" fill-rule="nonzero" d="M16 52.17h10.73c1.023-.006 1.85-.837 1.85-1.86V39.6c.003-.492-.191-.966-.538-1.315-.348-.349-.82-.545-1.312-.545H16c-1.021.01-1.845.839-1.85 1.86v10.71c-.003.492.191.966.538 1.315.348.349.82.545 1.312.545zM34.85 38.79H72.80000000000001V41.81H34.85zM34.85 44.57H54.77V47.59H34.85z"/>
                <path fill="#3C424E" fill-rule="nonzero" d="M34.32 38.28l.07 2.93-.13-.13 9.48-.08 9.49-.07h19l-.33.33v-3l.32.31-18.88-.09-19-.14-.02-.06zm-.13-.16l19-.15 19.07-.09h.31v3.66H53.24l-9.49-.06-9.48-.1h-.14v-.13l.06-3.08v-.05zM34.34 46.92l10-.17c3.3-.06 6.57-.06 9.86-.08l-.32.32V44l.33.33-10-.06-10-.11.15-.16-.07 2.94.05-.02zm-.16.14L34.1 44v-.15h.16l10-.12 10-.06h.33v3.68h-.32c-3.36 0-6.73 0-10.06-.08l-9.93-.17-.1-.04z"/>
                <path fill="#3C424E" fill-rule="nonzero" d="M66.27 30h9.45c2.203.119 4.169 1.42 5.14 3.4.238.485.413 1 .52 1.53.09.528.13 1.064.12 1.6v18.88c.02 2.234-1.16 4.306-3.09 5.43-.946.557-2.023.85-3.12.85h-3.1l-50.37.07h-9.46c-2.257-.14-4.263-1.486-5.25-3.52-.239-.496-.413-1.02-.52-1.56-.094-.555-.131-1.118-.11-1.68V36.11c-.015-2.24 1.172-4.316 3.11-5.44.955-.55 2.038-.839 3.14-.84h3.17l50.37.17zm0 .21l-50.37.14h-3.14c-1.012.003-2.005.272-2.88.78-1.771 1.04-2.85 2.947-2.83 5V55c-.126 2.048.845 4.009 2.55 5.15.833.555 1.8.876 2.8.93h9.42l50.37.08h3.15c1.53.003 2.998-.607 4.076-1.692 1.078-1.086 1.677-2.558 1.664-4.088V36.5c.145-2.087-.825-4.095-2.55-5.28-.85-.583-1.841-.928-2.87-1h-9.44l.05-.01z"/>
                <path fill="#3C424E" fill-rule="nonzero" d="M15.34 51.41l6.82-.12h3.41c.266.021.534.021.8 0 .736-.167 1.26-.816 1.27-1.57V39.5c.022-.263.022-.527 0-.79-.045-.23-.144-.446-.29-.63-.286-.38-.735-.602-1.21-.6H15.92c-.263-.02-.527-.02-.79 0-.24.048-.466.15-.66.3-.4.29-.638.755-.64 1.25l-.07 6.82v3.4c-.02.276-.02.554 0 .83.052.258.161.5.32.71.32.432.823.69 1.36.7l-.1-.08zm0 .21c-.614-.002-1.193-.286-1.57-.77-.191-.24-.325-.52-.39-.82-.024-.293-.024-.587 0-.88v-3.4l-.07-6.82c.004-.658.31-1.277.83-1.68.257-.204.559-.344.88-.41.298-.045.6-.062.9-.05H26.14c.683-.005 1.329.314 1.74.86.203.268.34.58.4.91.024.303.024.607 0 .91v10.22c-.01.663-.329 1.283-.86 1.68-.26.194-.561.327-.88.39-.296.029-.594.029-.89 0h-3.41l-6.82-.12-.08-.02z"/>
                <path d="M12.92 36.38H28.92V52.38H12.92z"/>
                <path fill="#FF7133" fill-rule="nonzero" d="M19.89 46.25L18 48.57c-.148.205-.212.46-.18.71.039.252.18.476.39.62.149.096.323.145.5.14h.19c.252-.052.474-.199.62-.41l1.23-2M22.1 45.47l.59-.94c.245.04.495.04.74 0 .808-.207 1.5-.73 1.92-1.45.423-.561.679-1.23.74-1.93.081-.572-.143-1.145-.59-1.51-.49-.308-1.108-.331-1.62-.06-.638.286-1.185.743-1.58 1.32-.55.7-.812 1.584-.73 2.47 0 .17.2.52.13.68l-.42.51"/>
                <path fill="#FF7133" fill-rule="nonzero" d="M20.28 44.12c-.1-.13-.11-.19 0-.41.206-.455.153-.985-.14-1.39l-2-2.84c-.033-.05-.084-.084-.142-.096-.059-.01-.12.002-.168.036-.051.03-.088.082-.101.14-.013.059-.002.12.031.17l1.86 2.6s.17.22-.12.41c-.29.19-.41.09-.47 0l-1.85-2.64c-.038-.084-.123-.137-.216-.134-.092.002-.174.06-.207.146-.034.086-.013.183.053.248L18.58 43c0 .07.09.22-.14.37s-.4.08-.45 0l-1.85-2.59c-.075-.1-.214-.126-.32-.06-.096.077-.122.213-.06.32l2 2.83c.335.462.914.679 1.47.55.16 0 .07 0 .19.09l3.07 5.06c.135.204.349.342.59.38.053.01.107.01.16 0 .492 0 .89-.398.89-.89-.004-.197-.067-.388-.18-.55l-3.67-4.39z"/>
                <path fill="#000" fill-rule="nonzero" d="M19.91 45.93c-.42.55-.85 1.1-1.28 1.64-.21.27-.45.54-.64.8-.174.275-.174.625 0 .9.177.272.501.41.82.35.158-.023.307-.089.43-.19.12-.113.222-.245.3-.39.37-.58.75-1.16 1.13-1.74-.35.6-.7 1.2-1.06 1.79-.082.16-.19.306-.32.43-.147.12-.323.2-.51.23-.185.025-.374.005-.55-.06-.175-.077-.324-.201-.43-.36-.207-.327-.207-.743 0-1.07.21-.29.44-.54.66-.81.44-.53.9-1 1.35-1.58l.1.06zM22.08 45.12l.58-.95c.576.064 1.156-.085 1.63-.42.464-.352.851-.794 1.14-1.3.328-.489.524-1.053.57-1.64.078-.565-.15-1.129-.6-1.48-.502-.285-1.118-.285-1.62 0-.52.254-.973.627-1.32 1.09-.366.466-.629 1.005-.77 1.58-.075.28-.105.57-.09.86.007.143.034.284.08.42.066.144.087.304.06.46l-.43.5.41-.52c0-.26-.17-.54-.17-.84-.024-.302.004-.607.08-.9.151-.577.416-1.117.78-1.59.359-.487.829-.88 1.37-1.15.255-.134.533-.215.82-.24.311-.027.623.047.89.21.267.172.468.43.57.73.093.29.127.596.1.9-.043.604-.243 1.187-.58 1.69-.305.515-.705.966-1.18 1.33-.5.349-1.117.492-1.72.4l-.6.93v-.07z"/>
                <path fill="#000" fill-rule="nonzero" d="M20.37 43.94l-.1-.13c-.047-.052-.08-.113-.1-.18-.015-.066-.015-.134 0-.2.052-.116.092-.236.12-.36.045-.248.025-.503-.06-.74-.103-.23-.238-.446-.4-.64l-.45-.61-.89-1.24-.45-.62c-.045-.098-.16-.142-.26-.1-.044.023-.076.063-.087.111-.012.048-.002.099.027.139v.06l1.9 2.57.07.09h-.12v-.1c.07.084.089.198.05.3-.034.091-.097.169-.18.22-.077.054-.167.088-.26.1-.105.026-.215-.014-.28-.1l-1.16-1.66-.55-.85c-.05-.06-.11-.16-.14-.19-.054-.024-.116-.024-.17 0-.054.026-.089.08-.09.14-.006.026-.006.054 0 .08l.07.1 1.17 1.66.58.83c.07.079.1.186.08.29-.025.101-.09.188-.18.24-.078.056-.167.097-.26.12-.114.022-.23-.016-.31-.1l-1.14-1.58-.56-.79-.14-.2c-.02-.045-.055-.08-.1-.1-.053.002-.101.033-.126.08-.025.048-.023.105.006.15v.07l1.49 2.1.37.52c.114.175.248.336.4.48.322.261.747.357 1.15.26h.18v.05l1.71 2.84.86 1.42.43.72c.116.242.345.41.61.45.318.061.643-.066.835-.326.192-.26.217-.608.065-.894-.088-.139-.188-.27-.3-.39l-.32-.39-.63-.76-2.36-2.94zm-.1-.21l2.55 3.07.64.76.32.39c.113.123.214.257.3.4.179.317.151.71-.07 1-.213.292-.575.436-.93.37-.29-.058-.538-.241-.68-.5l-.4-.68-.86-1.42-1.74-2.83c.05 0 0 0 0 0h-.1c-.465.106-.951-.025-1.3-.35-.17-.142-.315-.31-.43-.5l-.38-.52-1.5-2.09c-.055-.1-.055-.22 0-.32.056-.097.158-.157.27-.16.109.004.21.06.27.15l.14.2.57.79 1.13 1.58c.07.08.24 0 .36-.05s.17-.19.06-.31l-.58-.83-1.14-1.68-.08-.1c-.014-.052-.014-.108 0-.16-.004-.116.06-.223.164-.273.105-.05.229-.033.316.043.061.07.118.143.17.22l.58.83L19 42.42c.08.11.25.06.38 0 .061-.034.11-.086.14-.15.024-.058.024-.122 0-.18l-.07-.1h.12l-.05.1-1.85-2.6c-.043-.065-.057-.146-.038-.222.02-.076.07-.14.138-.178.146-.073.324-.015.4.13l.44.62.87 1.16.44.62c.163.2.298.422.4.66.091.246.109.514.05.77-.028.124-.068.244-.12.36-.014.06-.014.12 0 .18-.002.048.004.095.02.14z"/>
                <path fill="#E3EFF9" fill-rule="nonzero" d="M68.07 103.59h9.08c3.314 0 6 2.686 6 6V129c0 3.314-2.686 6-6 6H14.54c-3.314 0-6-2.686-6-6v-19.4c0-3.314 2.686-6 6-6l53.53-.01z"/>
                <path fill="#FFF" fill-rule="nonzero" d="M66.87 102.64H76c3.314 0 6 2.686 6 6V128c0 3.314-2.686 6-6 6H13.34c-3.314 0-6-2.686-6-6v-19.4c0-3.314 2.686-6 6-6l53.53.04z"/>
                <path fill="#E3EFF9" fill-rule="nonzero" d="M26.73 109.69H16c-.492 0-.964.196-1.312.545-.347.35-.54.823-.538 1.315v10.71c-.003.492.191.966.538 1.315.348.349.82.545 1.312.545h10.73c1.023-.006 1.85-.837 1.85-1.86v-10.71c.003-.492-.191-.966-.538-1.315-.348-.349-.82-.545-1.312-.545zM34.85 109.74H72.80000000000001V112.75999999999999H34.85zM34.85 115.52H54.77V118.53999999999999H34.85z"/>
                <path fill="#3C424E" fill-rule="nonzero" d="M15.34 123.36l6.82-.12h3.41c.266.021.534.021.8 0 .736-.167 1.26-.816 1.27-1.57v-10.22c.022-.263.022-.527 0-.79-.045-.23-.144-.446-.29-.63-.286-.38-.735-.602-1.21-.6H15.92c-.263-.02-.527-.02-.79 0-.24.048-.466.15-.66.3-.4.29-.638.755-.64 1.25l-.07 6.82v3.4c-.02.276-.02.554 0 .83.052.258.161.5.32.71.32.432.823.69 1.36.7l-.1-.08zm0 .21c-.614-.002-1.193-.286-1.57-.77-.191-.24-.325-.52-.39-.82-.024-.293-.024-.587 0-.88v-3.4l-.07-6.82c.004-.658.31-1.277.83-1.68.257-.204.559-.344.88-.41.298-.045.6-.062.9-.05H26.14c.683-.005 1.329.314 1.74.86.203.268.34.58.4.91.024.303.024.607 0 .91v10.22c-.01.663-.329 1.283-.86 1.68-.26.194-.561.327-.88.39-.296.029-.594.029-.89 0h-3.41l-6.82-.12-.08-.02zM34.32 109.23l.07 2.93-.13-.13 9.48-.09 9.49-.07h19l-.33.33v-3l.32.31-18.88-.09-19-.14-.02-.05zm-.13-.16l19-.15 19.07-.09h.31v3.66H53.24l-9.49-.06-9.48-.1h-.14v-.13l.06-3.08v-.05zM34.34 117.87l10-.17c3.3-.06 6.57-.06 9.86-.08l-.32.32v-3l.33.33-10-.06-10-.11.15-.16-.07 2.94.05-.01zm-.16.14l-.08-3.09v-.15h.16l10-.12 10-.06h.33v3.68h-.32c-3.36 0-6.73 0-10.06-.08L34.19 118l-.01.01z"/>
                <path fill="#3C424E" fill-rule="nonzero" d="M66.27 102h9.45c2.203.119 4.169 1.42 5.14 3.4.238.485.413 1 .52 1.53.09.528.13 1.064.12 1.6v18.88c.02 2.234-1.16 4.306-3.09 5.43-.946.557-2.023.85-3.12.85h-3.1l-50.37.07h-9.46c-2.257-.14-4.263-1.486-5.25-3.52-.239-.496-.413-1.02-.52-1.56-.094-.555-.131-1.118-.11-1.68v-18.89c-.015-2.24 1.172-4.316 3.11-5.44.955-.55 2.038-.839 3.14-.84h3.17l50.37.14v.03zm0 .2l-50.37.14h-3.14c-1.012.003-2.005.272-2.88.78-1.771 1.04-2.85 2.947-2.83 5V127c-.108 2.03.86 3.968 2.55 5.1.833.555 1.8.876 2.8.93h9.42l50.37.08h3.15c1.53.003 2.998-.607 4.076-1.692 1.078-1.086 1.677-2.558 1.664-4.088v-18.88c.145-2.087-.825-4.095-2.55-5.28-.85-.583-1.841-.928-2.87-1h-9.44l.05.03z"/>
                <path d="M14.25 109.8H27.03V122.58H14.25z"/>
                <path fill="#FF4D4D" fill-rule="nonzero" d="M23.27 116.71v-4.82c-.005-.305-.255-.55-.56-.55h-4.77c-.305 0-.555.245-.56.55v4.82h-1.93v4.79h4v-2.64c0-.16.13-.29.29-.29h1.21c.16 0 .29.13.29.29v2.64H25v-4.79h-1.73zm-2.37-4.19h1.18v1.17H20.9v-1.17zm0 2.09h1.18v1.18H20.9v-1.18zm-2.24-2.09h1.18v1.17h-1.18v-1.17zm0 2.09h1.18v1.18h-1.18v-1.18z"/>
                <path fill="#000" fill-rule="nonzero" d="M15.66 121.48c-.05-.79-.08-1.59-.09-2.39v-1.19-1.2c.005-.057.053-.1.11-.1.473 0 .943.02 1.41.06-.467 0-.937.02-1.41.06l.11-.11V119c0 .8 0 1.6-.09 2.39l-.04.09zM26.6 121.58c-1 0-2 .06-3 .07h-6c-1 0-2 0-3-.06v-.05c1 0 2-.02 3-.06h6c1 0 2 0 3 .07v.03zM23.51 116.66c.59 0 1.18-.06 1.77-.08.06 0 .11.05.11.11v3.59c0 .4 0 .79-.06 1.19 0-.4 0-.79-.05-1.19-.05-.4 0-.8 0-1.2v-2.39l.12.12c-.59 0-1.18 0-1.77-.08l-.12-.07z"/>
                <path fill="#000" fill-rule="nonzero" d="M17.57 121.54c0-1.07 0-2.14-.07-3.22V111.88c.03-.372.327-.666.7-.69H23c.376.019.68.314.71.69v3.23c0 2.14 0 4.29-.1 6.43 0 .039-.031.07-.07.07-.035-.005-.06-.035-.06-.07-.06-2.14-.08-4.29-.1-6.43v-3.2c-.023-.181-.168-.323-.35-.34h-4.86c-.184.004-.335.147-.35.33v6.41c0 1.08 0 2.15-.07 3.22 0 .033-.027.06-.06.06 0 0-.12-.02-.12-.05z"/>
                <path fill="#000" fill-rule="nonzero" d="M20.12 113.76c-.37 0-.78.08-1.2.09-.028.003-.056-.006-.077-.026-.021-.019-.033-.046-.033-.074v-1.18c0-.072.058-.13.13-.13h1.18c.055 0 .1.045.1.1-.04.46-.08.84-.1 1.22zm-.07-.05c0-.4-.05-.78-.07-1.15l.11.1h-1.18l.13-.13v1.18l-.11-.11c.34.04.71.07 1.12.11zM22.36 113.76c-.37 0-.78.08-1.2.09-.028.003-.056-.006-.077-.026-.021-.019-.033-.046-.033-.074v-1.18c0-.072.058-.13.13-.13h1.17c.055 0 .1.045.1.1-.04.46-.07.84-.09 1.22zm-.07-.05c0-.4-.06-.78-.07-1.15l.1.1h-1.17l.13-.13v1.18l-.11-.11c.34.04.71.07 1.12.11zM20.12 115.86c-.37 0-.78.07-1.2.09-.057 0-.105-.043-.11-.1v-1.18c0-.072.058-.13.13-.13h1.18c.055 0 .1.045.1.1-.04.44-.08.84-.1 1.22zm-.07 0c0-.4-.05-.77-.07-1.14l.11.1h-1.18l.13-.13v1.18l-.11-.11c.34-.02.71.01 1.12.05v.05zM19.64 121.48c0-.6-.06-1.21-.07-1.82V119c-.006-.097.015-.194.06-.28.05-.1.142-.172.25-.2.086-.008.174-.008.26 0H21c.086-.008.174-.008.26 0 .105.033.195.104.25.2.048.085.066.184.05.28v.68c0 .61 0 1.22-.07 1.82 0-.6-.05-1.21-.06-1.82v-.45c.02-.13.02-.26 0-.39-.024-.037-.059-.065-.1-.08h-1.29c-.045.007-.085.032-.11.07V119.67c0 .61 0 1.22-.08 1.82 0 0-.21.01-.21-.01zM22.36 115.86c-.37 0-.78.07-1.2.09-.057 0-.105-.043-.11-.1v-1.18c0-.072.058-.13.13-.13h1.17c.055 0 .1.045.1.1-.04.44-.07.84-.09 1.22zm-.07 0c0-.4-.06-.77-.07-1.14l.1.1h-1.17l.13-.13v1.18l-.11-.11c.34-.02.71.01 1.12.05v.05z"/>
                <path fill="#000" fill-rule="nonzero" d="M26.88 121.58c-1 0-2.08.06-3.12.07h-6.24c-1.04 0-2.08 0-3.12-.06h-.05l.05-.05c1.04 0 2.08-.02 3.12-.06h6.24c1 0 2.08 0 3.12.07 0 0 .02.03 0 .03z"/>
                <path fill="#3C424E" fill-rule="nonzero" d="M128.11 40.05h2.74c.134 0 .245.106.25.24.003.065-.021.129-.067.176-.045.047-.108.074-.173.074l-2.74-.05c-.052 0-.102-.021-.138-.06-.036-.037-.055-.088-.052-.14-.015-.057-.004-.117.031-.164s.09-.075.149-.076zM135 39.93h2.74c.202 0 .37.158.38.36 0 .202-.158.37-.36.38h-2.74c-.174-.01-.31-.155-.31-.33-.032-.094-.017-.198.04-.279.058-.081.15-.13.25-.131zM141.81 39.81h2.75c.256 0 .465.204.47.46 0 .261-.209.475-.47.48h-2.75c-.117-.003-.228-.052-.308-.136-.08-.084-.125-.197-.122-.314-.017-.124.02-.25.103-.344.082-.094.202-.147.327-.146zM148.67 39.74h2.74c.298 0 .54.242.54.54 0 .298-.242.54-.54.54h-2.74c-.281-.01-.505-.239-.51-.52-.014-.144.033-.287.13-.393.098-.107.236-.168.38-.167zM155.52 39.67h2.74c.333 0 .605.267.61.6.003.16-.06.316-.172.43-.113.115-.267.18-.428.18h-2.74c-.32-.01-.575-.27-.58-.59-.008-.158.048-.313.155-.43.107-.116.257-.185.415-.19zM162.37 39.63h2.74c.348 0 .63.282.63.63 0 .348-.282.63-.63.63h-2.75c-.342 0-.62-.278-.62-.62-.005-.17.059-.334.178-.455s.282-.188.452-.185zM169.22 39.6H172c.253-.031.502.086.639.302.136.215.136.49 0 .706-.137.216-.386.333-.639.302h-2.75c-.325-.04-.57-.317-.57-.645s.245-.604.57-.645l-.03-.02zM176.08 39.58h2.74c.376 0 .68.304.68.68 0 .376-.304.68-.68.68h-2.74c-.37 0-.67-.3-.67-.67 0-.37.3-.67.67-.67v-.02zM182.93 39.57h2.74c.37 0 .67.3.67.67 0 .37-.3.67-.67.67h-2.74c-.376 0-.68-.304-.68-.68 0-.376.304-.68.68-.68v.02zM189.78 39.59h2.74c.359 0 .65.291.65.65 0 .359-.291.65-.65.65h-2.74c-.365 0-.66-.295-.66-.66 0-.365.295-.66.66-.66v.02zM196.63 39.61h2.74c.351.005.635.289.64.64-.005.35-.29.63-.64.63h-2.74c-.353 0-.64-.287-.64-.64 0-.353.287-.64.64-.64v.01zM203.49 39.63h2.74c.158 0 .31.064.42.176.112.113.173.266.17.424.003.158-.058.31-.17.424-.11.112-.262.176-.42.176h-2.74c-.342 0-.62-.278-.62-.62 0-.342.278-.62.62-.62v.04zM210.34 39.68h2.74c.298 0 .54.242.54.54-.005.296-.244.535-.54.54h-2.74c-.15.003-.295-.055-.402-.16-.108-.106-.168-.25-.168-.4-.003-.15.055-.295.16-.402.106-.108.25-.168.4-.168l.01.05zM217.19 39.74h2.74c.265 0 .48.215.48.48-.005.263-.217.475-.48.48h-2.74c-.134.003-.264-.049-.36-.143-.096-.094-.15-.223-.15-.357 0-.278.222-.505.5-.51l.01.05zM224 39.82h2.74c.21 0 .38.17.38.38s-.17.38-.38.38H224c-.113.003-.223-.04-.303-.12-.081-.078-.127-.187-.127-.3 0-.234.186-.425.42-.43l.01.09zM230.89 39.93h2.75c.07 0 .138.029.187.08.05.05.076.12.073.19 0 .145-.115.265-.26.27h-2.75c-.084.003-.165-.029-.226-.087-.06-.059-.094-.139-.094-.223.005-.17.14-.31.31-.32l.01.09zM289.93 148.08h2.74c.133 0 .24.107.24.24.003.063-.02.124-.064.17-.043.044-.103.07-.166.07h-2.74c-.104-.01-.185-.095-.19-.2-.027-.061-.021-.132.015-.188.036-.056.098-.09.165-.092zM296.78 148h2.74c.19 0 .345.15.35.34.006.093-.028.183-.093.25-.064.067-.154.103-.247.1h-2.74c-.08-.003-.155-.037-.21-.095-.054-.058-.083-.135-.08-.215-.03-.089-.013-.187.042-.262.056-.075.144-.12.238-.118zM303.64 147.87h2.74c.243.005.44.198.45.44 0 .245-.195.445-.44.45h-2.74c-.226 0-.41-.184-.41-.41 0-.226.184-.41.41-.41l-.01-.07zM310.49 147.8h2.74c.278 0 .505.222.51.5.003.134-.049.264-.143.36-.094.096-.223.15-.357.15h-2.74c-.276 0-.5-.224-.5-.5s.224-.5.5-.5l-.01-.01zM317.34 147.74h2.74c.31 0 .565.25.57.56.003.15-.055.295-.16.402-.106.108-.25.168-.4.168h-2.74c-.298 0-.54-.242-.54-.54 0-.298.242-.54.54-.54l-.01-.05zM324.19 147.68h2.74c.218 0 .42.116.528.305.11.189.11.421 0 .61-.109.189-.31.305-.528.305h-2.75c-.214 0-.412-.114-.52-.3-.107-.186-.107-.414 0-.6.108-.186.306-.3.52-.3l.01-.02zM331 147.65h2.75c.348 0 .63.282.63.63 0 .348-.282.63-.63.63H331c-.342 0-.62-.278-.62-.62-.003-.167.061-.328.177-.448.117-.12.276-.19.443-.192zM337.9 147.63h2.74c.36.005.65.3.65.66.003.173-.065.34-.187.463-.123.122-.29.19-.463.187h-2.74c-.357-.005-.645-.293-.65-.65-.003-.174.065-.342.187-.466s.289-.194.463-.194zM344.75 147.61h2.74c.18 0 .353.072.48.2.128.127.2.3.2.48s-.072.351-.2.477-.3.196-.48.193h-2.74c-.37 0-.67-.3-.67-.67 0-.37.3-.67.67-.67v-.01zM351.6 147.6h2.74c.376 0 .68.304.68.68 0 .376-.304.68-.68.68h-2.74c-.376 0-.68-.304-.68-.68 0-.376.304-.68.68-.68zM358.45 147.61h2.75c.365 0 .66.295.66.66 0 .365-.295.66-.66.66h-2.75c-.37 0-.67-.3-.67-.67 0-.37.3-.67.67-.67v.02zM365.31 147.63h2.74c.353 0 .64.287.64.64 0 .353-.287.64-.64.64h-2.74c-.36 0-.655-.29-.66-.65 0-.172.068-.338.19-.46s.288-.19.46-.19l.01.02zM372.16 147.64h2.74c.348 0 .63.282.63.63 0 .348-.282.63-.63.63h-2.74c-.35 0-.635-.28-.64-.63.005-.351.289-.635.64-.64v.01zM379 147.67h2.74c.326 0 .59.264.59.59 0 .326-.264.59-.59.59H379c-.164.003-.321-.06-.438-.175-.116-.115-.182-.271-.182-.435 0-.337.273-.61.61-.61l.01.04zM384.08 147.06v-2.74c.005-.3.25-.54.55-.54.294.005.53.246.53.54v2.74c.006.148-.05.293-.154.398-.104.106-.248.165-.396.162-.15.005-.294-.05-.402-.154-.107-.104-.168-.247-.168-.396l.04-.01zM384.13 140.21v-2.74c0-.276.224-.5.5-.5s.5.224.5.5v2.74c.003.134-.049.264-.143.36-.094.096-.223.15-.357.15-.281-.005-.51-.229-.52-.51h.02zM384.2 133.35v-2.74c.01-.224.196-.4.42-.4.22 0 .4.18.4.4v2.74c.003.12-.042.235-.125.321-.082.086-.196.136-.315.139-.245 0-.445-.195-.45-.44l.07-.02zM384.29 126.5v-2.74c0-.084.034-.164.094-.223.06-.058.142-.09.226-.087.169.005.305.141.31.31v2.74c.006.094-.028.185-.092.253-.065.069-.154.107-.248.107-.095.003-.186-.033-.254-.099s-.106-.156-.106-.251l.07-.01zM384.39 119.65v-1.57c0-.063.026-.123.07-.166.046-.044.107-.067.17-.064.121.013.217.109.23.23v1.57c-.024.122-.131.21-.255.21s-.23-.088-.255-.21h.04z"/>
                <path fill="#FFF" fill-rule="nonzero" d="M110.09 70.81h165.65c3.374 0 6.11 2.736 6.11 6.11V181.8h-173.8V72.85c-.011-.544.2-1.07.585-1.455.385-.385.91-.596 1.455-.585z"/>
                <g fill="url(#orpb57fp4c)" fill-rule="nonzero" opacity=".4" transform="translate(127 81)">
                    <path d="M.63 96.25L125.51.94c7.63-.25 11.56 2.75 11.56 5.22v91.47c0 2.47-1.67 4.48-3.76 4.48L.63 101.93"/>
                </g>
                <path fill="#3C424E" fill-rule="nonzero" d="M28.38 204.08l36.08-.19h36.08l72.16-.09 72.17.18L281 204l36.08.22c.342 0 .62.278.62.62 0 .342-.278.62-.62.62l-36.08.23-36.08.09-72.22.22-72.16-.09-36.08-.06-36.08-.19c-.436 0-.79-.354-.79-.79 0-.436.354-.79.79-.79zM326 204.08c2.67-.17 5.34-.23 8-.29 2.66-.06 5.35 0 8 0 2.65 0 5.34 0 8 .15s5.35.18 8 .36c.165.01.318.086.427.21.109.123.164.285.153.45-.02.312-.268.56-.58.58-2.67.19-5.34.29-8 .37-2.66.08-5.34.09-8 .14-2.66.05-5.34 0-8-.05s-5.34-.12-8-.29c-.21-.013-.406-.109-.544-.266-.14-.158-.21-.364-.196-.574.004-.416.326-.759.74-.79z"/>
                <path fill="#E7ECF2" fill-rule="nonzero" d="M121.77 82.61H129.76V181.25H121.77zM274.18 70.71H281.21V181.63H274.18z"/>
                <path fill="#3C424E" fill-rule="nonzero" d="M128.42 82.61l.2 12.33.1 12.33v24.66l-.14 24.66-.14 12.33-.23 12.33c-.003.164-.07.321-.189.436-.118.114-.277.177-.441.174-.332-.01-.6-.278-.61-.61l-.22-12.33-.14-12.33-.15-24.66v-24.66l.1-12.33.19-12.33c.003-.211.09-.413.242-.56.152-.146.357-.225.568-.22.22-.02.437.054.6.202.164.148.258.358.26.578zM275.7 69.92H278.85c.206-.019.414-.019.62 0 1.615.388 2.724 1.871 2.64 3.53l.09 7.21.1 14.42v28.82l-.15 28.83-.14 14.42-.22 14.41c-.003.164-.07.321-.189.436-.118.114-.277.177-.441.174-.332-.01-.6-.278-.61-.61l-.22-14.41-.14-14.42-.15-28.83V95.08l.1-14.42.09-7.21c.121-.829-.38-1.623-1.18-1.87-.093-.006-.187-.006-.28 0H275.7c-.436 0-.79-.354-.79-.79 0-.436.354-.79.79-.79v-.08z"/>
                <path fill="#E7ECF2" fill-rule="nonzero" d="M294.07 183.11H300.45V200.74H294.07z"/>
                <path fill="#3C424E" fill-rule="nonzero" d="M295.68 182.52c.88-.07 1.77-.1 2.65-.15 1.251-.034 2.38.747 2.79 1.93.094.291.144.594.15.9v4.64c0 1.76 0 3.53-.11 5.3s-.13 3.53-.27 5.3c-.026.253-.246.442-.5.43-.231-.015-.415-.199-.43-.43-.14-1.77-.22-3.54-.28-5.3-.06-1.76-.07-3.54-.1-5.3v-4.64c.015-.136.015-.274 0-.41-.157-.555-.663-.94-1.24-.94-.88 0-1.77-.08-2.65-.15-.326 0-.59-.264-.59-.59 0-.326.264-.59.59-.59h-.01zM108.45 181.25l-.4-47.94-.22-47.94v-10.5c0-1.531.613-2.998 1.704-4.073 1.09-1.075 2.565-1.668 4.096-1.647h30l47.94-.06 47.94.06h30c1.217-.015 2.407.356 3.4 1.06 1 .71 1.743 1.723 2.12 2.89.177.577.27 1.176.28 1.78v10.5l-.2 47.94-.37 47.94c-.03.189-.194.328-.385.328s-.354-.14-.385-.328l-.36-47.94-.21-47.94v-10.5c-.007-.39-.07-.778-.19-1.15-.514-1.54-1.976-2.564-3.6-2.52h-30l-47.94.06-47.94-.07h-30c-1.668-.093-3.194.938-3.73 2.52-.118.376-.182.766-.19 1.16v10.5l-.23 47.94-.39 47.94c0 .182-.148.33-.33.33-.182 0-.33-.148-.33-.33l-.08-.01z"/>
                <path fill="#3C424E" fill-rule="nonzero" d="M119.32 181.25l-.4-42.16-.23-42.16v-9.27-1.4c.202-2.234 1.815-4.085 4-4.59.941-.124 1.892-.165 2.84-.12h23.72l42.16-.06 42.16.06H257.28c.948-.035 1.898.005 2.84.12 2.213.486 3.853 2.353 4.05 4.61v10.67l-.17 42.14-.36 42.16c-.01.213-.187.38-.4.38-.21 0-.38-.17-.38-.38l-.36-42.16-.21-42.16-.06-10.45c-.137-1.36-1.134-2.478-2.47-2.77-.804-.078-1.613-.101-2.42-.07H233.63l-42.16.07-42.16-.07h-23.72c-.804-.04-1.61-.02-2.41.06-1.345.293-2.347 1.42-2.48 2.79l-.06 10.45-.23 42.16-.4 42.16c-.028.158-.165.273-.325.273s-.297-.115-.325-.273l-.04-.01z"/>
                <path fill="#FFF" fill-rule="nonzero" d="M86.94 200.44v-14.76c0-1.519 1.231-2.75 2.75-2.75H291c1.519 0 2.75 1.231 2.75 2.75v14.76"/>
                <path fill="#3C424E" fill-rule="nonzero" d="M86.61 200.44c-.08-5-.17-9.94-.2-15 .113-1.556 1.288-2.826 2.83-3.06.333-.023.667-.023 1 0h2.81l7.48-.09 29.93-.23 59.85-.17c20 .06 39.91 0 59.86.17l29.93.21 7.48.09H290.38c.333-.022.667-.022 1 0 1.557.227 2.744 1.51 2.85 3.08l-.17 15c-.005.211-.178.38-.39.38-.21 0-.38-.17-.38-.38l-.19-14.92c-.076-1.03-.866-1.865-1.89-2-.283-.016-.567-.016-.85 0H287.56l-7.48.09-29.93.21c-20 .14-39.91.11-59.86.17l-59.85-.17-29.93-.23-7.48-.09h-2.81c-.283-.016-.567-.016-.85 0-1.034.122-1.836.961-1.91 2l-.23 14.93c0 .087-.035.17-.097.23s-.146.093-.233.09c-.157-.023-.278-.152-.29-.31z"/>
                <path fill="#E7ECF2" fill-rule="nonzero" d="M219 185.38v3.44c0 .53-2.21 1-4.93 1h-43.4c-2.72 0-4.93-.43-4.93-1v-3.44"/>
                <path fill="#3C424E" fill-rule="nonzero" d="M217.75 185.45l.06 1.9v1.54c-.01.188-.058.371-.14.54-.07.11-.15.215-.24.31l-.2.16c-.36.227-.755.39-1.17.48-.35.09-.68.16-1 .22-.662.105-1.33.175-2 .21-2.6.08-5.07.08-7.62.13h-15.16c-5 0-10.11 0-15.16-.14-2.54-.06-5-.07-7.61-.16-.66-.05-1.31-.12-2-.23-.337-.052-.67-.122-1-.21-.394-.097-.772-.252-1.12-.46l-.18-.15c-.08-.085-.15-.18-.21-.28-.071-.144-.112-.3-.12-.46v-1.54l.07-1.9c0-.342.278-.62.62-.62.342 0 .62.278.62.62l.07 1.9v1.54c.008-.088-.013-.176-.06-.25-.014-.034-.034-.064-.06-.09.204.093.42.16.64.2.28.05.57.1.87.13.601.067 1.205.104 1.81.11l7.54-.12c5.05-.09 10.11-.09 15.16-.14h15.16c2.51 0 5.1.09 7.54.08.601-.006 1.202-.043 1.8-.11.29 0 .57-.08.84-.14.206-.037.407-.098.6-.18-.043.035-.078.08-.1.13-.055.097-.08.209-.07.32v-1.54l.06-1.9c0-.436.354-.79.79-.79.436 0 .79.354.79.79l.18.1zM184.25 140.75c-1.25-.07-2.5-.1-3.76-.15l-3.75-.09c-2.51-.06-5-.06-7.52-.07-2.52-.01-5 0-7.51.08l-3.76.1c-1.25 0-2.5.09-3.75.17-.072 0-.13.058-.13.13-.003.036.01.072.034.098.025.027.06.042.096.042 1.25.08 2.5.11 3.75.17l3.76.1c2.5 0 5 .07 7.51.07s5 0 7.52-.08l3.75-.08c1.26-.06 2.51-.09 3.76-.16.083-.004.15-.068.16-.15 0-.092-.068-.17-.16-.18zM170.17 144.43c-2.62-.25-5.23-.3-7.85-.31-1.31 0-2.61 0-3.92.07s-2.62.13-3.92.27c-.068.009-.121.062-.13.13-.003.037.01.074.034.102.024.028.059.045.096.048 1.3.14 2.61.22 3.92.27 1.31.05 2.61.07 3.92.07 2.62 0 5.23-.07 7.85-.32.076-.019.13-.087.13-.165 0-.078-.054-.146-.13-.165z"/>
                <circle cx="143.93" cy="142.76" r="5.43" fill="#FFF" fill-rule="nonzero"/>
                <path fill="#3C424E" fill-rule="nonzero" d="M138.48 142.76c-.036-1.483.514-2.92 1.53-4 1.628-1.676 4.11-2.197 6.275-1.319 2.165.879 3.582 2.982 3.582 5.319 0 2.337-1.417 4.44-3.582 5.319-2.165.878-4.647.357-6.275-1.319-1.033-1.073-1.597-2.511-1.57-4h.04zm.24 0c.027 1.395.606 2.722 1.61 3.69 2.046 1.97 5.294 1.929 7.29-.09 1.955-1.998 1.955-5.192 0-7.19-.952-.958-2.24-1.506-3.59-1.53-2.866-.012-5.223 2.256-5.32 5.12h.01z"/>
                <path fill="#44E08D" d="M146.3 141.65l-3 2.8c-.16.149-.41.149-.57 0l-1.2-1.2c-.101-.107-.139-.258-.1-.4.033-.138.142-.247.28-.28.142-.041.294-.003.4.1l.93.93 2.72-2.54c.156-.152.404-.152.56 0 .061.06.103.136.12.22.029.149-.025.302-.14.4v-.03zm-2.37-2.89c-1.908.002-3.55 1.35-3.92 3.222-.371 1.872.631 3.745 2.395 4.475 1.763.729 3.796.11 4.855-1.477 1.06-1.587.85-3.701-.5-5.05-.75-.75-1.769-1.17-2.83-1.17z"/>
                <path fill="#3C424E" fill-rule="nonzero" d="M246.19 140.75c-1.25-.07-2.5-.1-3.75-.15l-3.76-.09c-2.51-.06-5-.06-7.51-.07-2.51-.01-5 0-7.52.08l-3.76.1c-1.25 0-2.5.09-3.75.17-.072 0-.13.058-.13.13-.003.036.01.072.034.098.025.027.06.042.096.042 1.25.08 2.5.11 3.75.17l3.76.1c2.51 0 5 .07 7.52.07 2.52 0 5 0 7.51-.08l3.76-.08c1.25-.06 2.5-.09 3.75-.16.085 0 .155-.066.16-.15 0-.092-.068-.17-.16-.18zM232.11 144.43c-2.62-.25-5.23-.3-7.85-.31-1.31 0-2.61 0-3.92.07s-2.62.13-3.92.27c-.068.009-.121.062-.13.13 0 .076.055.14.13.15 1.3.14 2.61.22 3.92.27 1.31.05 2.61.07 3.92.07 2.62 0 5.23-.07 7.85-.32.077-.012.138-.073.15-.15.006-.09-.06-.17-.15-.18z"/>
                <circle cx="205.87" cy="142.76" r="5.43" fill="#FFF" fill-rule="nonzero"/>
                <path fill="#3C424E" fill-rule="nonzero" d="M200.42 142.76c-.036-1.483.514-2.92 1.53-4 1.826-1.857 4.676-2.246 6.933-.946 2.257 1.3 3.351 3.96 2.661 6.472-.69 2.512-2.99 4.24-5.594 4.204-1.497-.018-2.924-.632-3.968-1.705-1.043-1.074-1.616-2.518-1.592-4.015l.03-.01zm.24 0c.027 1.395.606 2.722 1.61 3.69 2.046 1.97 5.294 1.929 7.29-.09 1.955-1.998 1.955-5.192 0-7.19-.952-.958-2.24-1.506-3.59-1.53-2.866-.012-5.223 2.256-5.32 5.12h.01z"/>
                <path fill="#44E08D" d="M208.25 141.65l-3 2.8c-.164.15-.416.15-.58 0l-1.2-1.2c-.101-.107-.139-.258-.1-.4.037-.136.144-.243.28-.28.142-.041.294-.003.4.1l.93.93 2.72-2.54c.156-.152.404-.152.56 0 .064.057.107.135.12.22.034.15-.02.304-.14.4l.01-.03zm-2.38-2.89c-1.908.002-3.55 1.35-3.92 3.222-.371 1.872.631 3.745 2.395 4.475 1.763.729 3.796.11 4.855-1.477 1.06-1.587.85-3.701-.5-5.05-.75-.75-1.769-1.17-2.83-1.17z"/>
                <path fill="#3C424E" fill-rule="nonzero" d="M184.25 163c-1.25-.07-2.5-.1-3.76-.15l-3.75-.09c-2.51-.06-5-.07-7.52-.07-2.52 0-5 0-7.51.07l-3.76.1c-1.25.06-2.5.09-3.75.17-.07.005-.125.06-.13.13-.003.037.01.074.034.102.024.028.059.045.096.048 1.25.08 2.5.11 3.75.17l3.76.09c2.5.06 5 .07 7.51.08 2.51.01 5 0 7.52-.08l3.75-.09c1.26 0 2.51-.08 3.76-.15.084-.009.151-.076.16-.16 0-.09-.07-.165-.16-.17zM170.17 166.71c-2.62-.25-5.23-.31-7.85-.32-1.31 0-2.61 0-3.92.08s-2.62.12-3.92.27c-.06.017-.103.072-.103.135 0 .063.042.118.103.135 1.3.15 2.61.22 3.92.27 1.31.05 2.61.07 3.92.07 2.62 0 5.23-.07 7.85-.31.076-.019.13-.087.13-.165 0-.078-.054-.146-.13-.165z"/>
                <circle cx="143.93" cy="165.03" r="5.43" fill="#FFF" fill-rule="nonzero"/>
                <path fill="#3C424E" fill-rule="nonzero" d="M138.48 165c-.04-1.483.51-2.922 1.53-4 1.626-1.663 4.096-2.176 6.25-1.298 2.153.878 3.56 2.973 3.56 5.298-.007 1.538-.626 3.01-1.72 4.09-1.629 1.625-4.08 2.1-6.197 1.202-2.118-.899-3.48-2.992-3.443-5.292h.02zm.24 0c.022 2.1 1.304 3.98 3.25 4.767 1.946.787 4.175.327 5.65-1.167 1.955-1.998 1.955-5.192 0-7.19-.953-.955-2.241-1.5-3.59-1.52-2.868-.023-5.232 2.243-5.33 5.11h.02z"/>
                <path fill="#44E08D" d="M146.3 163.93l-3 2.8c-.16.149-.41.149-.57 0l-1.2-1.2c-.101-.107-.139-.258-.1-.4.036-.139.142-.25.28-.29.143-.043.299 0 .4.11l.93.92 2.72-2.53c.156-.152.404-.152.56 0 .058.058.1.13.12.21.034.15-.02.304-.14.4v-.02zm-2.37-2.9c-1.908-.003-3.552 1.341-3.928 3.212-.376 1.87.62 3.746 2.382 4.48 1.76.734 3.795.123 4.86-1.46 1.063-1.584.861-3.699-.484-5.052-.744-.765-1.763-1.2-2.83-1.21v.03z"/>
                <path fill="#3C424E" fill-rule="nonzero" d="M232.11 166.71c-2.62-.25-5.23-.31-7.85-.32-1.31 0-2.61 0-3.92.08s-2.62.12-3.92.27c-.068 0-.125.052-.13.12-.003.037.01.074.034.102.024.028.059.045.096.048 1.3.15 2.61.22 3.92.27 1.31.05 2.61.07 3.92.07 2.62 0 5.23-.07 7.85-.31.077-.012.138-.073.15-.15.006-.09-.06-.17-.15-.18zM237 163.11c-3.43-.3-6.86-.37-10.29-.38-1.72 0-3.43 0-5.15.09-1.72.09-3.43.15-5.14.32-.085.004-.156.066-.17.15 0 .096.075.175.17.18 1.71.17 3.43.26 5.14.32 1.71.06 3.43.09 5.15.09 3.43 0 6.86-.08 10.29-.38.101-.004.186-.08.2-.18.003-.055-.017-.108-.055-.148-.038-.04-.09-.062-.145-.062z"/>
                <circle cx="205.87" cy="165.03" r="5.43" fill="#FFF" fill-rule="nonzero"/>
                <path fill="#3C424E" fill-rule="nonzero" d="M200.42 165c-.04-1.483.51-2.922 1.53-4 1.824-1.864 4.677-2.258 6.938-.959 2.26 1.3 3.357 3.963 2.665 6.477-.691 2.514-2.996 4.242-5.603 4.202-1.496-.018-2.923-.632-3.964-1.706-1.042-1.074-1.613-2.518-1.586-4.014h.02zm.24 0c.022 2.1 1.304 3.98 3.25 4.767 1.946.787 4.175.327 5.65-1.167 1.955-1.998 1.955-5.192 0-7.19-.953-.955-2.241-1.5-3.59-1.52-2.864-.018-5.223 2.247-5.32 5.11h.01z"/>
                <path fill="#44E08D" d="M208.25 163.93l-3 2.8c-.164.15-.416.15-.58 0l-1.2-1.2c-.101-.107-.139-.258-.1-.4.04-.137.144-.246.28-.29.143-.043.299 0 .4.11l.93.92 2.72-2.53c.156-.152.404-.152.56 0 .062.055.104.129.12.21.039.15-.016.307-.14.4l.01-.02zm-2.38-2.9c-1.908-.003-3.552 1.341-3.928 3.212-.376 1.87.62 3.746 2.382 4.48 1.76.734 3.795.123 4.86-1.46 1.063-1.584.861-3.699-.484-5.052-.744-.765-1.763-1.2-2.83-1.21v.03z"/>
                <circle cx="257.18" cy="172.72" r="17.07" fill="#44E08D" fill-rule="nonzero"/>
                <path fill="#3C424E" fill-rule="nonzero" d="M271 163.67c2.008 3.783 2.543 8.176 1.5 12.33-.523 2.072-1.414 4.033-2.63 5.79-1.247 1.744-2.787 3.26-4.55 4.48-6.48 4.307-15.015 3.873-21.025-1.068-6.011-4.942-8.087-13.23-5.115-20.422.822-1.988 2.017-3.8 3.52-5.34 2.967-3.145 6.991-5.082 11.3-5.44 4.266-.33 8.502.944 11.88 3.57.048.044.075.105.075.17 0 .065-.027.126-.075.17-.094.083-.236.083-.33 0-3.342-2.363-7.43-3.429-11.5-3-8.29.871-14.65 7.756-14.86 16.09-.177 8.298 5.841 15.434 14.05 16.66 3.982.57 8.036-.315 11.42-2.49 1.676-1.1 3.148-2.484 4.35-4.09 1.186-1.628 2.067-3.458 2.6-5.4 1.115-3.947.76-8.165-1-11.87-.043-.102 0-.22.1-.27.055-.03.12-.032.177-.007.057.026.099.076.113.137z"/>
                <g fill-rule="nonzero">
                    <use fill="#000" filter="url(#bpkcn63ujd)" xlink:href="#bn0zfy2cje"/>
                    <use fill="#FFF" xlink:href="#bn0zfy2cje"/>
                </g>
                <path fill="#3C424E" fill-rule="nonzero" d="M269.92 160.55l-8.51 6.38-8.55 6.32-1.07.78-.27.2-.13.1h-.07c-.058.04-.122.07-.19.09-.117.038-.243.038-.36 0l-.15-.06-.31-.12-2.47-1-2.47-1-1.23-.5-.16-.06c-.07 0 0 0 0 0 .033-.002.064-.019.084-.046.02-.027.025-.062.016-.094l.11.12.21.25 3.5 4.09 1.72 2 .86 1 .43.5.19.23c-.09-.07-.1 0-.08 0h.07l-.11.07 9.75-9.77 4.9-4.86 2.45-2.43 1.23-1.22.61-.61.14-.14v-.08c0-.03-.1-.11-.16-.06l.02-.08zm-.13-.18c.091-.066.21-.084.316-.049.107.036.19.121.224.229.035.115.008.24-.07.33l-.16.16-.6.62-1.2 1.24-2.4 2.47-4.81 4.95-9.66 9.87c-.027.036-.066.06-.11.07-.08.03-.164.05-.25.06-.145.011-.29-.035-.4-.13l-.24-.27-.43-.5-.87-1-1.74-2-3.47-4-.22-.25-.1-.13-.06-.09c-.038-.06-.062-.129-.07-.2-.043-.299.154-.58.45-.64.118-.032.242-.032.36 0l.16.07 1.23.5 2.46 1 2.46 1 .31.12.15.06c.06 0 0 0 0 0h.06l.14-.1.27-.19 1.07-.78 8.64-6.2 8.68-6.14-.12-.08z"/>
                <path fill="#F1BD41" fill-rule="nonzero" d="M187.58 97.13h-2.08c.383.51.63 1.109.72 1.74H188l-.4 1.38h-1.34c-.045.931-.499 1.795-1.24 2.36-.893.57-1.941.85-3 .8l4.36 5v.11h-2l-4.69-5.44V102h2.19c.631.023 1.255-.144 1.79-.48.441-.304.75-.766.86-1.29h-5.1l.4-1.38h4.68c-.29-1.11-1.15-1.69-2.6-1.73h-2.47l.41-1.38H188l-.42 1.39z"/>
                <path fill="#3C424E" fill-rule="nonzero" d="M187.31 96.83h-2.11l.06-.13c.409.51.672 1.122.76 1.77l-.11-.08h1.77c.066.004.12.054.13.12l-.39 1.38c-.013.056-.062.097-.12.1h-1.34l.14-.13c-.04.51-.182 1.007-.42 1.46-.232.456-.576.845-1 1.13-.887.509-1.898.758-2.92.72l.13-.28 4.38 5c.015.039.015.081 0 .12v.11c0 .101-.079.185-.18.19h-2c-.055-.002-.106-.028-.14-.07l-4.71-5.43c-.014-.046-.014-.094 0-.14v-1.09c.005-.121.1-.22.22-.23h1.42c.46.03.92.03 1.38 0 .435-.055.846-.228 1.19-.5.34-.262.575-.639.66-1.06l.2.25h-5.1c-.103-.005-.185-.087-.19-.19v-.06l.4-1.38c.026-.078.098-.13.18-.13h4.68l-.16.21c-.105-.445-.36-.84-.72-1.12-.425-.248-.908-.375-1.4-.37-.483-.025-.967-.025-1.45 0h-1.46c-.083 0-.15-.067-.15-.15l.42-1.38c.014-.06.068-.102.13-.1h8.14c.046 0 .085.034.09.08l-.41 1.38zm-.09-.1l.36-1.35.08.11-8.14.08.13-.1-.4 1.39-.14-.19h1.46c.496-.025.994-.025 1.49 0 .517.046 1.013.225 1.44.52.424.317.721.774.84 1.29.012.044.006.09-.016.13-.023.04-.06.068-.104.08h-4.68l.18-.14-.4 1.39-.18-.24h5.1c.116 0 .21.094.21.21-.105.514-.389.974-.8 1.3-.4.315-.876.519-1.38.59-.481.054-.966.074-1.45.06h-1.41l.22-.23v1.1l-.06-.14 4.67 5.46-.15-.07h2l-.18.19v-.11.12l-4.34-5.06c-.031-.03-.049-.072-.049-.115 0-.043.018-.085.049-.115.032-.013.068-.013.1 0 .962.036 1.915-.189 2.76-.65.797-.528 1.295-1.405 1.34-2.36.003-.037.02-.072.048-.096.028-.025.065-.037.102-.034h1.33l-.12.1.41-1.38.12.15h-1.77c-.054 0-.1-.037-.11-.09-.073-.617-.307-1.203-.68-1.7-.03-.034-.03-.086 0-.12h.06l2.06.02z"/>
                <path fill="#F1BD41" fill-rule="nonzero" d="M202.17 97.07h-2.08c.386.508.634 1.108.72 1.74h1.77l-.4 1.38h-1.34c-.045.931-.499 1.795-1.24 2.36-.891.574-1.94.854-3 .8l4.36 5v.1h-2l-4.69-5.44V102h2.19c.632.02 1.256-.15 1.79-.49.44-.3.749-.758.86-1.28H194l.4-1.38h4.68c-.29-1.11-1.15-1.69-2.6-1.73H194l.41-1.39h8.15l-.39 1.34z"/>
                <path fill="#3C424E" fill-rule="nonzero" d="M201.9 96.77h-2.11l.06-.14c.408.515.67 1.13.76 1.78l-.11-.09h1.77c.032-.003.063.007.088.028.024.02.04.05.042.082l-.4 1.46c-.014.054-.064.092-.12.09h-1.34l.14-.13c-.04.513-.184 1.013-.42 1.47-.247.458-.609.844-1.05 1.12-.887.509-1.898.758-2.92.72l.13-.27 4.38 5c.013.039.013.081 0 .12v.11c0 .105-.085.19-.19.19h-2c-.055-.002-.106-.028-.14-.07l-4.71-5.42c-.014-.046-.014-.094 0-.14v-1.1c0-.122.098-.22.22-.22h1.42c.46.036.92.036 1.38 0 .433-.056.843-.225 1.19-.49.337-.266.57-.64.66-1.06l.2.25h-5.1c-.103-.005-.185-.087-.19-.19l.4-1.39c.026-.078.098-.13.18-.13h4.68l-.16.21c-.105-.445-.36-.84-.72-1.12-.379-.264-.82-.422-1.28-.46-.483-.025-.967-.025-1.45 0h-1.49c-.083 0-.15-.067-.15-.15l.42-1.38c.014-.06.068-.102.13-.1h8.14c.05 0 .09.04.09.09l-.43 1.33zm-.09-.1l.36-1.34.08.11-8.14.08.13-.1-.4 1.38-.14-.18h1.47c.493-.025.987-.025 1.48 0 .517.046 1.013.225 1.44.52.424.321.722.781.84 1.3.012.042.006.088-.017.126-.022.038-.06.065-.103.074h-4.68l.18-.13-.4 1.38-.18-.24h5.1c.114.005.205.096.21.21-.105.514-.389.974-.8 1.3-.4.312-.877.513-1.38.58-.481.057-.966.08-1.45.07H194l.22-.22v1.09l-.06-.14 4.67 5.46-.15-.07h2l-.18.19v-.11.13l-4.34-5.07c-.031-.03-.049-.072-.049-.115 0-.043.018-.085.049-.115.032-.013.068-.013.1 0 .963.046 1.919-.18 2.76-.65.797-.528 1.295-1.405 1.34-2.36.01-.075.074-.13.15-.13h1.33l-.12.09.41-1.38.12.16h-1.75c-.054 0-.1-.037-.11-.09-.071-.62-.306-1.21-.68-1.71-.03-.03-.03-.08 0-.11.019-.009.041-.009.06 0l2.04.01z"/>
                <path fill="#F1BD41" fill-rule="nonzero" d="M216.76 97h-2.08c.383.51.63 1.109.72 1.74h1.77l-.4 1.38h-1.34c-.044.929-.498 1.79-1.24 2.35-.89.578-1.94.861-3 .81l4.36 5v.11h-2l-4.69-5.39v-1.09H211c.63.018 1.253-.149 1.79-.48.441-.304.75-.766.86-1.29h-5.1l.4-1.38h4.68c-.29-1.12-1.15-1.69-2.6-1.74h-2.43l.41-1.38h8.15l-.4 1.36z"/>
                <path fill="#3C424E" fill-rule="nonzero" d="M216.49 96.71h-2.11l.06-.14c.408.515.67 1.13.76 1.78l-.11-.08h1.77c.034-.003.067.009.091.031.025.023.04.055.039.089l-.39 1.38c-.013.056-.062.097-.12.1h-1.34l.14-.13c-.04.51-.182 1.007-.42 1.46-.246.462-.607.851-1.05 1.13-.889.504-1.899.753-2.92.72l.13-.28 4.38 5c.015.039.015.081 0 .12v.11c0 .1-.08.18-.18.18h-2c-.055-.002-.106-.028-.14-.07l-4.71-5.43c-.014-.046-.014-.094 0-.14v-1.09c0-.123.097-.225.22-.23H210c.46.03.92.03 1.38 0 .434-.051.846-.22 1.19-.49.339-.264.573-.64.66-1.06l.2.25h-5.1c-.05.003-.098-.015-.134-.05-.036-.033-.056-.08-.056-.13v-.06l.4-1.38c.026-.078.098-.13.18-.13h4.68l-.16.21c-.105-.445-.36-.84-.72-1.12-.38-.263-.82-.425-1.28-.47-.483-.025-.967-.025-1.45 0h-1.46c-.083 0-.15-.067-.15-.15l.42-1.38c.014-.06.068-.102.13-.1h8.14c.046 0 .085.034.09.08l-.47 1.47zm-.09-.1l.36-1.35.08.11-8.14.08.13-.1-.4 1.39-.14-.19h1.47c.493-.025.987-.025 1.48 0 .517.046 1.013.225 1.44.52.424.317.721.774.84 1.29.012.044.006.09-.016.13-.023.04-.06.068-.104.08h-4.68l.18-.14-.4 1.39-.18-.24h5.1c.116 0 .21.094.21.21-.105.514-.389.974-.8 1.3-.4.315-.876.519-1.38.59-.481.054-.966.074-1.45.06h-1.41l.22-.23v1.1l-.06-.14 4.67 5.46-.15-.07h2l-.18.19V108v.12l-4.34-5.06c-.031-.03-.049-.072-.049-.115 0-.043.018-.085.049-.115.032-.012.068-.012.1 0 .962.036 1.915-.189 2.76-.65.828-.525 1.346-1.421 1.39-2.4.003-.037.02-.072.048-.096.028-.025.065-.037.102-.034h1.33l-.12.1.41-1.38.12.15h-1.77c-.054 0-.1-.037-.11-.09-.073-.617-.307-1.203-.68-1.7-.03-.034-.03-.086 0-.12h2.07z"/>
                <rect width="32" height="32" x="138.46" y="93.17" fill="#E3EFF9" fill-rule="nonzero" rx="1.79"/>
                <path d="M142.661 97.369H166.251V120.959H142.661z" transform="rotate(1 154.456 109.164)"/>
                <path fill="#FFF" fill-rule="nonzero" d="M163.08 106.33v-1.26c.003-.143-.052-.282-.151-.385-.1-.103-.236-.162-.379-.165l-8.88-.15c-.155-.008-.3-.08-.4-.2l-1.22-1.45c-.1-.119-.245-.188-.4-.19l-5.53-.1c-.296 0-.54.234-.55.53l-.05 3.07v1.35l17.54.31.02-1.36z"/>
                <path fill="#3C424E" fill-rule="nonzero" d="M145.47 106v-3.09c.001-.08.018-.157.05-.23.057-.148.163-.271.3-.35.135-.07.288-.102.44-.09H151.71c.177.005.347.073.48.19l.09.09.06.07.12.14.94 1.11.11.13c.018.025.042.046.07.06H156l2.91.08 2.9.09h.73c.305-.02.585.17.68.46.01.073.01.147 0 .22v1.27c-.005.046-.044.08-.09.08-.044 0-.08-.036-.08-.08v-1.27c.005-.047.005-.093 0-.14-.076-.182-.265-.289-.46-.26h-8.93c-.088-.01-.173-.037-.25-.08-.078-.045-.15-.103-.21-.17l-.12-.14-.93-1.12-.15.03-.06-.07c-.048-.048-.112-.077-.18-.08h-.73l-2.9-.07-1.45-.05h-.37c-.084-.028-.176-.028-.26 0-.076.039-.136.102-.17.18-.01.043-.01.087 0 .13v.17l-.14 2.91c-.005.035-.035.06-.07.06-.05.055-.135.06-.19.01-.055-.05-.06-.135-.01-.19z"/>
                <path fill="#FFF" fill-rule="nonzero" d="M160.34 117.32L149.94 114.27 149.64 114.18 153.86 99.83 161.79 102.17 162.14 102.29 163.84 105.4 163.66 106.03 160.34 117.32"/>
                <path fill="#D9E0E8" fill-rule="nonzero" d="M161.32 105.01L161.01 105.32 163.51 105.64z"/>
                <path fill="#3C424E" fill-rule="nonzero" d="M152.9 108.19c.68.14 1.35.31 2 .48.65.17 1.33.37 2 .57.67.2 1.32.42 2 .65.68.23 1.3.46 1.94.72.023.009.041.027.05.05.01.022.01.048 0 .07-.032.015-.068.015-.1 0-.67-.14-1.34-.32-2-.5-.66-.18-1.33-.38-2-.57-.67-.19-1.32-.41-2-.64-.68-.23-1.3-.47-1.94-.74-.023-.03-.023-.07 0-.1 0 0 .01.01.05.01zM152.55 109.29c.69.13 1.35.3 2 .47.65.17 1.33.37 2 .58.67.21 1.32.41 2 .64.68.23 1.3.46 1.94.73.022.007.04.022.05.044.01.02.01.045 0 .066-.018.038-.06.059-.1.05-.68-.14-1.34-.31-2-.49-.66-.18-1.33-.39-2-.58-.67-.19-1.32-.41-2-.64-.68-.23-1.3-.47-1.94-.74-.022-.026-.022-.064 0-.09.008-.022.027-.037.05-.04zM152.3 110.33c.68.13 1.35.31 2 .48.65.17 1.33.37 2 .57.67.2 1.32.42 2 .65.68.23 1.3.46 1.94.72.04.021.06.066.05.11-.03.02-.07.02-.1 0-.68-.14-1.35-.31-2-.49-.65-.18-1.33-.38-2-.57-.67-.19-1.32-.41-2-.65-.68-.24-1.3-.46-1.94-.73-.023-.03-.023-.07 0-.1.017-.002.035.002.05.01zM152 111.25c.85.13 1.69.328 2.51.59.822.247 1.624.555 2.4.92.03.03.03.08 0 .11-.025.013-.055.013-.08 0-.85-.147-1.688-.35-2.51-.61-.823-.248-1.625-.559-2.4-.93-.022-.026-.022-.064 0-.09.025-.018.06-.013.08.01zM159.49 115.78c-1.33-.35-2.69-.72-4.06-1.1-1.37-.38-2.76-.79-4.13-1.19-.128-.039-.202-.17-.17-.3l.28-1c.043-.124.174-.193.3-.16 2.69.83 5.37 1.7 8.05 2.59.028.01.051.03.064.055.013.027.015.057.006.085-.1.37-.22.7-.34 1.02zm-.09-.13c.07-.31.14-.61.22-.91l.07.14c-2.71-.75-5.43-1.53-8.13-2.33l.31-.16-.29 1-.16-.3c1.31.41 2.63.81 3.95 1.26l4.03 1.3zM158.74 105.91c.337.043.67.107 1 .19l.95.26c.632.19 1.25.424 1.85.7.02.023.02.057 0 .08-.022.013-.048.013-.07 0-.65-.115-1.29-.272-1.92-.47-.31-.09-.63-.2-.94-.31-.31-.11-.61-.24-.91-.39v-.07c0-.02.02 0 .04.01zM158.45 106.85c.449.006.894.08 1.32.22.433.121.847.303 1.23.54.027.036.027.084 0 .12-.025.013-.055.013-.08 0-.448-.02-.892-.098-1.32-.23-.434-.12-.846-.31-1.22-.56-.023-.03-.023-.07 0-.1.023-.01.05-.006.07.01z"/>
                <path fill="#BFCAD8" fill-rule="nonzero" d="M149.45 114.17c.33-1.2.66-2.41 1-3.6.34-1.19.68-2.4 1-3.59l1.08-3.58 1.12-3.57c.016-.058.055-.106.108-.135.053-.028.115-.034.172-.015 1.32.41 2.63.84 3.94 1.26 1.31.42 2.62.87 3.93 1.31.042.018.064.066.05.11-.03.023-.07.023-.1 0-1.33-.37-2.66-.73-4-1.12-1.34-.39-2.65-.77-4-1.17l.28-.15-1.08 3.57-1.12 3.57c-.37 1.19-.76 2.37-1.15 3.56-.39 1.19-.78 2.36-1.19 3.54 0 0-.06.06-.09 0 .017-.004.036 0 .05.01zM149.84 114.22c.89.19 1.76.43 2.63.66.87.23 1.74.5 2.6.76.86.26 1.73.54 2.58.83.85.29 1.71.59 2.55.92.022.007.04.022.05.044.01.02.01.045 0 .066-.03.02-.07.02-.1 0-.88-.2-1.75-.44-2.62-.68-.87-.24-1.73-.51-2.6-.76-.87-.25-1.72-.54-2.58-.83-.86-.29-1.71-.59-2.55-.93-.018-.027-.018-.063 0-.09.014 0 .028.003.04.01z"/>
                <path fill="#BFCAD8" fill-rule="nonzero" d="M162.23 102.42c.61 1 1.2 2 1.77 3.08.02.045.02.095 0 .14-.28 1-.59 2-.88 3-.29 1-.6 2-.91 3-.62 2-1.287 3.963-2 5.89-.007.022-.022.04-.044.05-.02.01-.045.01-.066 0-.041-.014-.063-.059-.05-.1.52-2 1.08-4 1.68-6 .3-1 .59-2 .91-3 .32-1 .62-2 .95-2.95v.14c-.53-1.05-1.06-2.12-1.55-3.19-.013-.011-.02-.028-.02-.045 0-.017.007-.034.02-.045.008-.052.058-.088.11-.08.052.008.088.058.08.11z"/>
                <path fill="#BFCAD8" fill-rule="nonzero" d="M163.5 105.69c-.757-.1-1.503-.266-2.23-.5-.129-.043-.203-.178-.17-.31.219-.74.496-1.463.83-2.16.03-.03.08-.03.11 0 .017.024.017.056 0 .08-.115.766-.292 1.522-.53 2.26l-.16-.31c.735.212 1.448.493 2.13.84.022.026.022.064 0 .09.007.002.014.006.02.01z"/>
                <path fill="#C0E3FF" fill-rule="nonzero" d="M156.27 102.8c-.84-.257-1.75.017-2.31.694-.558.677-.653 1.624-.241 2.4.412.774 1.25 1.225 2.123 1.141.874-.084 1.611-.686 1.868-1.525.004-.026.004-.054 0-.08l-2.07-.63.63-2z"/>
                <path fill="#4FA6FC" fill-rule="nonzero" d="M156.5 102.68l-.61 2 2.08.63c.298-1.13-.352-2.292-1.47-2.63z"/>
                <path fill="#FFF" fill-rule="nonzero" d="M163.12 106.67l-18-.31c-.134-.003-.264.05-.357.147-.093.097-.141.229-.133.363l.65 9.58c.016.25.22.445.47.45l16.29.29c.247.001.454-.185.48-.43l1-9.56c.03-.255-.146-.489-.4-.53z"/>
                <path fill="#4FA6FC" fill-rule="nonzero" d="M163.86 107.38l-18-.31c-.128-.003-.252.048-.34.142-.088.093-.131.22-.12.348l.65 9.6c.016.237.213.42.45.42l16.29.29c.236.001.434-.176.46-.41l1-9.57c.03-.248-.143-.474-.39-.51z"/>
                <path fill="#3C424E" fill-rule="nonzero" d="M163.12 106.74h-7.06l-7.06-.08H145.09c-.081.017-.149.073-.18.15-.006.036-.006.074 0 .11v.66l.12 1.76.49 7V116.51c.01.036.027.07.05.1.053.065.138.095.22.08h2.65l3.53.08 7.06.15h3.06c.096-.012.18-.072.22-.16.017-.045.017-.095 0-.14v-.66l.1-.88.2-1.75.41-3.51.2-1.75.1-.88c.042-.12.024-.253-.05-.356-.074-.104-.193-.165-.32-.164l.17.07zm0-.15c.175.002.338.088.44.23.1.138.137.313.1.48l-.08.88-.18 1.75-.35 3.52-.17 1.75-.09.88v.66c-.004.094-.028.186-.07.27-.096.18-.27.305-.47.34-.083.005-.167.005-.25 0h-2.87l-7.06-.1h-6.18c-.336.013-.638-.206-.73-.53-.004-.053-.004-.107 0-.16v-.11l-.47-7-.11-1.76v-.67c-.008-.106.009-.212.05-.31.09-.2.267-.348.48-.4.053-.01.107-.01.16 0h.34l3.53.08 7.06.17 7.06.21-.14-.18z"/>
                <path fill="#E3EFF9" fill-rule="nonzero" d="M179.84 113.84H227.8V116.86H179.84z"/>
                <path fill="#3C424E" fill-rule="nonzero" d="M179.17 113.32l.07 2.94-.16-.13 12-.1 12-.06h24l-.42.33v-3l.4.31-23.86-.09-24-.14-.03-.06zm-.17-.16l23.94-.14 24.1-.1h.4v3.66H203l-12-.06-12-.09h-.17v-.12l.07-3.09.1-.06z"/>
                <path fill="#E3EFF9" fill-rule="nonzero" d="M179.67 121.15H199.58999999999997V124.17H179.67z"/>
                <path fill="#3C424E" fill-rule="nonzero" d="M179.15 123.5l10-.17c3.31-.07 6.58-.07 9.86-.09l-.32.33v-3l.33.33-10-.06-10-.11.15-.16-.07 2.94.05-.01zm-.16.14l-.07-3.09v-.15h.16l10-.12 10-.06h.33v3.67H199c-3.35 0-6.72 0-10.06-.08l-9.93-.17h-.02z"/>
            </g>
        </g>
    </g>
</svg>
